<?xml version="1.0" encoding="utf-8" standalone="no"?>
<!DOCTYPE svg PUBLIC "-//W3C//DTD SVG 1.1//EN"
  "http://www.w3.org/Graphics/SVG/1.1/DTD/svg11.dtd">
<svg xmlns:xlink="http://www.w3.org/1999/xlink" width="1430.572344pt" height="376.620469pt" viewBox="0 0 1430.572344 376.620469" xmlns="http://www.w3.org/2000/svg" version="1.1">
 <metadata>
  <rdf:RDF xmlns:dc="http://purl.org/dc/elements/1.1/" xmlns:cc="http://creativecommons.org/ns#" xmlns:rdf="http://www.w3.org/1999/02/22-rdf-syntax-ns#">
   <cc:Work>
    <dc:type rdf:resource="http://purl.org/dc/dcmitype/StillImage"/>
    <dc:date>2026-04-26T14:35:45.821264</dc:date>
    <dc:format>image/svg+xml</dc:format>
    <dc:creator>
     <cc:Agent>
      <dc:title>Matplotlib v3.10.8, https://matplotlib.org/</dc:title>
     </cc:Agent>
    </dc:creator>
   </cc:Work>
  </rdf:RDF>
 </metadata>
 <defs>
  <style type="text/css">*{stroke-linejoin: round; stroke-linecap: butt}</style>
 </defs>
 <g id="figure_1">
  <g id="patch_1">
   <path d="M 0 376.620469 
L 1430.572344 376.620469 
L 1430.572344 -0 
L 0 -0 
z
" style="fill: #ffffff"/>
  </g>
  <g id="axes_1">
   <g id="patch_2">
    <path d="M 41.862344 337.24 
L 352.282344 337.24 
L 352.282344 87.24 
L 41.862344 87.24 
z
" style="fill: #ffffff"/>
   </g>
   <g id="matplotlib.axis_1">
    <g id="xtick_1">
     <g id="line2d_1">
      <path d="M 80.768582 337.24 
L 80.768582 87.24 
" clip-path="url(#p03be0180fb)" style="fill: none; stroke: #cccccc; stroke-width: 0.8; stroke-linecap: round"/>
     </g>
     <g id="text_1">
      <!-- −4 -->
      <g style="fill: #262626" transform="translate(74.497723 352.113594) scale(0.11 -0.11)">
       <defs>
        <path id="ArialMT-2212" d="M 3381 1997 
L 356 1997 
L 356 2522 
L 3381 2522 
L 3381 1997 
z
" transform="scale(0.015625)"/>
        <path id="ArialMT-34" d="M 2069 0 
L 2069 1097 
L 81 1097 
L 81 1613 
L 2172 4581 
L 2631 4581 
L 2631 1613 
L 3250 1613 
L 3250 1097 
L 2631 1097 
L 2631 0 
L 2069 0 
z
M 2069 1613 
L 2069 3678 
L 634 1613 
L 2069 1613 
z
" transform="scale(0.015625)"/>
       </defs>
       <use xlink:href="#ArialMT-2212"/>
       <use xlink:href="#ArialMT-34" transform="translate(58.398438 0)"/>
      </g>
     </g>
    </g>
    <g id="xtick_2">
     <g id="line2d_2">
      <path d="M 120.220294 337.24 
L 120.220294 87.24 
" clip-path="url(#p03be0180fb)" style="fill: none; stroke: #cccccc; stroke-width: 0.8; stroke-linecap: round"/>
     </g>
     <g id="text_2">
      <!-- −2 -->
      <g style="fill: #262626" transform="translate(113.949435 352.113594) scale(0.11 -0.11)">
       <defs>
        <path id="ArialMT-32" d="M 3222 541 
L 3222 0 
L 194 0 
Q 188 203 259 391 
Q 375 700 629 1000 
Q 884 1300 1366 1694 
Q 2113 2306 2375 2664 
Q 2638 3022 2638 3341 
Q 2638 3675 2398 3904 
Q 2159 4134 1775 4134 
Q 1369 4134 1125 3890 
Q 881 3647 878 3216 
L 300 3275 
Q 359 3922 746 4261 
Q 1134 4600 1788 4600 
Q 2447 4600 2831 4234 
Q 3216 3869 3216 3328 
Q 3216 3053 3103 2787 
Q 2991 2522 2730 2228 
Q 2469 1934 1863 1422 
Q 1356 997 1212 845 
Q 1069 694 975 541 
L 3222 541 
z
" transform="scale(0.015625)"/>
       </defs>
       <use xlink:href="#ArialMT-2212"/>
       <use xlink:href="#ArialMT-32" transform="translate(58.398438 0)"/>
      </g>
     </g>
    </g>
    <g id="xtick_3">
     <g id="line2d_3">
      <path d="M 159.672006 337.24 
L 159.672006 87.24 
" clip-path="url(#p03be0180fb)" style="fill: none; stroke: #cccccc; stroke-width: 0.8; stroke-linecap: round"/>
     </g>
     <g id="text_3">
      <!-- 0 -->
      <g style="fill: #262626" transform="translate(156.61349 352.113594) scale(0.11 -0.11)">
       <defs>
        <path id="ArialMT-30" d="M 266 2259 
Q 266 3072 433 3567 
Q 600 4063 929 4331 
Q 1259 4600 1759 4600 
Q 2128 4600 2406 4451 
Q 2684 4303 2865 4023 
Q 3047 3744 3150 3342 
Q 3253 2941 3253 2259 
Q 3253 1453 3087 958 
Q 2922 463 2592 192 
Q 2263 -78 1759 -78 
Q 1097 -78 719 397 
Q 266 969 266 2259 
z
M 844 2259 
Q 844 1131 1108 757 
Q 1372 384 1759 384 
Q 2147 384 2411 759 
Q 2675 1134 2675 2259 
Q 2675 3391 2411 3762 
Q 2147 4134 1753 4134 
Q 1366 4134 1134 3806 
Q 844 3388 844 2259 
z
" transform="scale(0.015625)"/>
       </defs>
       <use xlink:href="#ArialMT-30"/>
      </g>
     </g>
    </g>
    <g id="xtick_4">
     <g id="line2d_4">
      <path d="M 199.123718 337.24 
L 199.123718 87.24 
" clip-path="url(#p03be0180fb)" style="fill: none; stroke: #cccccc; stroke-width: 0.8; stroke-linecap: round"/>
     </g>
     <g id="text_4">
      <!-- 2 -->
      <g style="fill: #262626" transform="translate(196.065202 352.113594) scale(0.11 -0.11)">
       <use xlink:href="#ArialMT-32"/>
      </g>
     </g>
    </g>
    <g id="xtick_5">
     <g id="line2d_5">
      <path d="M 238.57543 337.24 
L 238.57543 87.24 
" clip-path="url(#p03be0180fb)" style="fill: none; stroke: #cccccc; stroke-width: 0.8; stroke-linecap: round"/>
     </g>
     <g id="text_5">
      <!-- 4 -->
      <g style="fill: #262626" transform="translate(235.516914 352.113594) scale(0.11 -0.11)">
       <use xlink:href="#ArialMT-34"/>
      </g>
     </g>
    </g>
    <g id="xtick_6">
     <g id="line2d_6">
      <path d="M 278.027141 337.24 
L 278.027141 87.24 
" clip-path="url(#p03be0180fb)" style="fill: none; stroke: #cccccc; stroke-width: 0.8; stroke-linecap: round"/>
     </g>
     <g id="text_6">
      <!-- 6 -->
      <g style="fill: #262626" transform="translate(274.968626 352.113594) scale(0.11 -0.11)">
       <defs>
        <path id="ArialMT-36" d="M 3184 3459 
L 2625 3416 
Q 2550 3747 2413 3897 
Q 2184 4138 1850 4138 
Q 1581 4138 1378 3988 
Q 1113 3794 959 3422 
Q 806 3050 800 2363 
Q 1003 2672 1297 2822 
Q 1591 2972 1913 2972 
Q 2475 2972 2870 2558 
Q 3266 2144 3266 1488 
Q 3266 1056 3080 686 
Q 2894 316 2569 119 
Q 2244 -78 1831 -78 
Q 1128 -78 684 439 
Q 241 956 241 2144 
Q 241 3472 731 4075 
Q 1159 4600 1884 4600 
Q 2425 4600 2770 4297 
Q 3116 3994 3184 3459 
z
M 888 1484 
Q 888 1194 1011 928 
Q 1134 663 1356 523 
Q 1578 384 1822 384 
Q 2178 384 2434 671 
Q 2691 959 2691 1453 
Q 2691 1928 2437 2201 
Q 2184 2475 1800 2475 
Q 1419 2475 1153 2201 
Q 888 1928 888 1484 
z
" transform="scale(0.015625)"/>
       </defs>
       <use xlink:href="#ArialMT-36"/>
      </g>
     </g>
    </g>
    <g id="xtick_7">
     <g id="line2d_7">
      <path d="M 317.478853 337.24 
L 317.478853 87.24 
" clip-path="url(#p03be0180fb)" style="fill: none; stroke: #cccccc; stroke-width: 0.8; stroke-linecap: round"/>
     </g>
     <g id="text_7">
      <!-- 8 -->
      <g style="fill: #262626" transform="translate(314.420338 352.113594) scale(0.11 -0.11)">
       <defs>
        <path id="ArialMT-38" d="M 1131 2484 
Q 781 2613 612 2850 
Q 444 3088 444 3419 
Q 444 3919 803 4259 
Q 1163 4600 1759 4600 
Q 2359 4600 2725 4251 
Q 3091 3903 3091 3403 
Q 3091 3084 2923 2848 
Q 2756 2613 2416 2484 
Q 2838 2347 3058 2040 
Q 3278 1734 3278 1309 
Q 3278 722 2862 322 
Q 2447 -78 1769 -78 
Q 1091 -78 675 323 
Q 259 725 259 1325 
Q 259 1772 486 2073 
Q 713 2375 1131 2484 
z
M 1019 3438 
Q 1019 3113 1228 2906 
Q 1438 2700 1772 2700 
Q 2097 2700 2305 2904 
Q 2513 3109 2513 3406 
Q 2513 3716 2298 3927 
Q 2084 4138 1766 4138 
Q 1444 4138 1231 3931 
Q 1019 3725 1019 3438 
z
M 838 1322 
Q 838 1081 952 856 
Q 1066 631 1291 507 
Q 1516 384 1775 384 
Q 2178 384 2440 643 
Q 2703 903 2703 1303 
Q 2703 1709 2433 1975 
Q 2163 2241 1756 2241 
Q 1359 2241 1098 1978 
Q 838 1716 838 1322 
z
" transform="scale(0.015625)"/>
       </defs>
       <use xlink:href="#ArialMT-38"/>
      </g>
     </g>
    </g>
    <g id="text_8">
     <!-- Component 1 -->
     <g style="fill: #262626" transform="translate(161.051719 367.035469) scale(0.12 -0.12)">
      <defs>
       <path id="ArialMT-43" d="M 3763 1606 
L 4369 1453 
Q 4178 706 3683 314 
Q 3188 -78 2472 -78 
Q 1731 -78 1267 223 
Q 803 525 561 1097 
Q 319 1669 319 2325 
Q 319 3041 592 3573 
Q 866 4106 1370 4382 
Q 1875 4659 2481 4659 
Q 3169 4659 3637 4309 
Q 4106 3959 4291 3325 
L 3694 3184 
Q 3534 3684 3231 3912 
Q 2928 4141 2469 4141 
Q 1941 4141 1586 3887 
Q 1231 3634 1087 3207 
Q 944 2781 944 2328 
Q 944 1744 1114 1308 
Q 1284 872 1643 656 
Q 2003 441 2422 441 
Q 2931 441 3284 734 
Q 3638 1028 3763 1606 
z
" transform="scale(0.015625)"/>
       <path id="ArialMT-6f" d="M 213 1659 
Q 213 2581 725 3025 
Q 1153 3394 1769 3394 
Q 2453 3394 2887 2945 
Q 3322 2497 3322 1706 
Q 3322 1066 3130 698 
Q 2938 331 2570 128 
Q 2203 -75 1769 -75 
Q 1072 -75 642 372 
Q 213 819 213 1659 
z
M 791 1659 
Q 791 1022 1069 705 
Q 1347 388 1769 388 
Q 2188 388 2466 706 
Q 2744 1025 2744 1678 
Q 2744 2294 2464 2611 
Q 2184 2928 1769 2928 
Q 1347 2928 1069 2612 
Q 791 2297 791 1659 
z
" transform="scale(0.015625)"/>
       <path id="ArialMT-6d" d="M 422 0 
L 422 3319 
L 925 3319 
L 925 2853 
Q 1081 3097 1340 3245 
Q 1600 3394 1931 3394 
Q 2300 3394 2536 3241 
Q 2772 3088 2869 2813 
Q 3263 3394 3894 3394 
Q 4388 3394 4653 3120 
Q 4919 2847 4919 2278 
L 4919 0 
L 4359 0 
L 4359 2091 
Q 4359 2428 4304 2576 
Q 4250 2725 4106 2815 
Q 3963 2906 3769 2906 
Q 3419 2906 3187 2673 
Q 2956 2441 2956 1928 
L 2956 0 
L 2394 0 
L 2394 2156 
Q 2394 2531 2256 2718 
Q 2119 2906 1806 2906 
Q 1569 2906 1367 2781 
Q 1166 2656 1075 2415 
Q 984 2175 984 1722 
L 984 0 
L 422 0 
z
" transform="scale(0.015625)"/>
       <path id="ArialMT-70" d="M 422 -1272 
L 422 3319 
L 934 3319 
L 934 2888 
Q 1116 3141 1344 3267 
Q 1572 3394 1897 3394 
Q 2322 3394 2647 3175 
Q 2972 2956 3137 2557 
Q 3303 2159 3303 1684 
Q 3303 1175 3120 767 
Q 2938 359 2589 142 
Q 2241 -75 1856 -75 
Q 1575 -75 1351 44 
Q 1128 163 984 344 
L 984 -1272 
L 422 -1272 
z
M 931 1641 
Q 931 1000 1190 694 
Q 1450 388 1819 388 
Q 2194 388 2461 705 
Q 2728 1022 2728 1688 
Q 2728 2322 2467 2637 
Q 2206 2953 1844 2953 
Q 1484 2953 1207 2617 
Q 931 2281 931 1641 
z
" transform="scale(0.015625)"/>
       <path id="ArialMT-6e" d="M 422 0 
L 422 3319 
L 928 3319 
L 928 2847 
Q 1294 3394 1984 3394 
Q 2284 3394 2536 3286 
Q 2788 3178 2913 3003 
Q 3038 2828 3088 2588 
Q 3119 2431 3119 2041 
L 3119 0 
L 2556 0 
L 2556 2019 
Q 2556 2363 2490 2533 
Q 2425 2703 2258 2804 
Q 2091 2906 1866 2906 
Q 1506 2906 1245 2678 
Q 984 2450 984 1813 
L 984 0 
L 422 0 
z
" transform="scale(0.015625)"/>
       <path id="ArialMT-65" d="M 2694 1069 
L 3275 997 
Q 3138 488 2766 206 
Q 2394 -75 1816 -75 
Q 1088 -75 661 373 
Q 234 822 234 1631 
Q 234 2469 665 2931 
Q 1097 3394 1784 3394 
Q 2450 3394 2872 2941 
Q 3294 2488 3294 1666 
Q 3294 1616 3291 1516 
L 816 1516 
Q 847 969 1125 678 
Q 1403 388 1819 388 
Q 2128 388 2347 550 
Q 2566 713 2694 1069 
z
M 847 1978 
L 2700 1978 
Q 2663 2397 2488 2606 
Q 2219 2931 1791 2931 
Q 1403 2931 1139 2672 
Q 875 2413 847 1978 
z
" transform="scale(0.015625)"/>
       <path id="ArialMT-74" d="M 1650 503 
L 1731 6 
Q 1494 -44 1306 -44 
Q 1000 -44 831 53 
Q 663 150 594 308 
Q 525 466 525 972 
L 525 2881 
L 113 2881 
L 113 3319 
L 525 3319 
L 525 4141 
L 1084 4478 
L 1084 3319 
L 1650 3319 
L 1650 2881 
L 1084 2881 
L 1084 941 
Q 1084 700 1114 631 
Q 1144 563 1211 522 
Q 1278 481 1403 481 
Q 1497 481 1650 503 
z
" transform="scale(0.015625)"/>
       <path id="ArialMT-20" transform="scale(0.015625)"/>
       <path id="ArialMT-31" d="M 2384 0 
L 1822 0 
L 1822 3584 
Q 1619 3391 1289 3197 
Q 959 3003 697 2906 
L 697 3450 
Q 1169 3672 1522 3987 
Q 1875 4303 2022 4600 
L 2384 4600 
L 2384 0 
z
" transform="scale(0.015625)"/>
      </defs>
      <use xlink:href="#ArialMT-43"/>
      <use xlink:href="#ArialMT-6f" transform="translate(72.216797 0)"/>
      <use xlink:href="#ArialMT-6d" transform="translate(127.832031 0)"/>
      <use xlink:href="#ArialMT-70" transform="translate(211.132812 0)"/>
      <use xlink:href="#ArialMT-6f" transform="translate(266.748047 0)"/>
      <use xlink:href="#ArialMT-6e" transform="translate(322.363281 0)"/>
      <use xlink:href="#ArialMT-65" transform="translate(377.978516 0)"/>
      <use xlink:href="#ArialMT-6e" transform="translate(433.59375 0)"/>
      <use xlink:href="#ArialMT-74" transform="translate(489.208984 0)"/>
      <use xlink:href="#ArialMT-20" transform="translate(516.992188 0)"/>
      <use xlink:href="#ArialMT-31" transform="translate(544.775391 0)"/>
     </g>
    </g>
   </g>
   <g id="matplotlib.axis_2">
    <g id="ytick_1">
     <g id="line2d_8">
      <path d="M 41.862344 315.537505 
L 352.282344 315.537505 
" clip-path="url(#p03be0180fb)" style="fill: none; stroke: #cccccc; stroke-width: 0.8; stroke-linecap: round"/>
     </g>
     <g id="text_9">
      <!-- −6 -->
      <g style="fill: #262626" transform="translate(22.320625 319.474302) scale(0.11 -0.11)">
       <use xlink:href="#ArialMT-2212"/>
       <use xlink:href="#ArialMT-36" transform="translate(58.398438 0)"/>
      </g>
     </g>
    </g>
    <g id="ytick_2">
     <g id="line2d_9">
      <path d="M 41.862344 283.379784 
L 352.282344 283.379784 
" clip-path="url(#p03be0180fb)" style="fill: none; stroke: #cccccc; stroke-width: 0.8; stroke-linecap: round"/>
     </g>
     <g id="text_10">
      <!-- −4 -->
      <g style="fill: #262626" transform="translate(22.320625 287.31658) scale(0.11 -0.11)">
       <use xlink:href="#ArialMT-2212"/>
       <use xlink:href="#ArialMT-34" transform="translate(58.398438 0)"/>
      </g>
     </g>
    </g>
    <g id="ytick_3">
     <g id="line2d_10">
      <path d="M 41.862344 251.222062 
L 352.282344 251.222062 
" clip-path="url(#p03be0180fb)" style="fill: none; stroke: #cccccc; stroke-width: 0.8; stroke-linecap: round"/>
     </g>
     <g id="text_11">
      <!-- −2 -->
      <g style="fill: #262626" transform="translate(22.320625 255.158859) scale(0.11 -0.11)">
       <use xlink:href="#ArialMT-2212"/>
       <use xlink:href="#ArialMT-32" transform="translate(58.398438 0)"/>
      </g>
     </g>
    </g>
    <g id="ytick_4">
     <g id="line2d_11">
      <path d="M 41.862344 219.064341 
L 352.282344 219.064341 
" clip-path="url(#p03be0180fb)" style="fill: none; stroke: #cccccc; stroke-width: 0.8; stroke-linecap: round"/>
     </g>
     <g id="text_12">
      <!-- 0 -->
      <g style="fill: #262626" transform="translate(28.745313 223.001138) scale(0.11 -0.11)">
       <use xlink:href="#ArialMT-30"/>
      </g>
     </g>
    </g>
    <g id="ytick_5">
     <g id="line2d_12">
      <path d="M 41.862344 186.90662 
L 352.282344 186.90662 
" clip-path="url(#p03be0180fb)" style="fill: none; stroke: #cccccc; stroke-width: 0.8; stroke-linecap: round"/>
     </g>
     <g id="text_13">
      <!-- 2 -->
      <g style="fill: #262626" transform="translate(28.745313 190.843417) scale(0.11 -0.11)">
       <use xlink:href="#ArialMT-32"/>
      </g>
     </g>
    </g>
    <g id="ytick_6">
     <g id="line2d_13">
      <path d="M 41.862344 154.748898 
L 352.282344 154.748898 
" clip-path="url(#p03be0180fb)" style="fill: none; stroke: #cccccc; stroke-width: 0.8; stroke-linecap: round"/>
     </g>
     <g id="text_14">
      <!-- 4 -->
      <g style="fill: #262626" transform="translate(28.745313 158.685695) scale(0.11 -0.11)">
       <use xlink:href="#ArialMT-34"/>
      </g>
     </g>
    </g>
    <g id="ytick_7">
     <g id="line2d_14">
      <path d="M 41.862344 122.591177 
L 352.282344 122.591177 
" clip-path="url(#p03be0180fb)" style="fill: none; stroke: #cccccc; stroke-width: 0.8; stroke-linecap: round"/>
     </g>
     <g id="text_15">
      <!-- 6 -->
      <g style="fill: #262626" transform="translate(28.745313 126.527974) scale(0.11 -0.11)">
       <use xlink:href="#ArialMT-36"/>
      </g>
     </g>
    </g>
    <g id="ytick_8">
     <g id="line2d_15">
      <path d="M 41.862344 90.433456 
L 352.282344 90.433456 
" clip-path="url(#p03be0180fb)" style="fill: none; stroke: #cccccc; stroke-width: 0.8; stroke-linecap: round"/>
     </g>
     <g id="text_16">
      <!-- 8 -->
      <g style="fill: #262626" transform="translate(28.745313 94.370253) scale(0.11 -0.11)">
       <use xlink:href="#ArialMT-38"/>
      </g>
     </g>
    </g>
    <g id="text_17">
     <!-- Component 2 -->
     <g style="fill: #262626" transform="translate(15.935625 248.260625) rotate(-90) scale(0.12 -0.12)">
      <use xlink:href="#ArialMT-43"/>
      <use xlink:href="#ArialMT-6f" transform="translate(72.216797 0)"/>
      <use xlink:href="#ArialMT-6d" transform="translate(127.832031 0)"/>
      <use xlink:href="#ArialMT-70" transform="translate(211.132812 0)"/>
      <use xlink:href="#ArialMT-6f" transform="translate(266.748047 0)"/>
      <use xlink:href="#ArialMT-6e" transform="translate(322.363281 0)"/>
      <use xlink:href="#ArialMT-65" transform="translate(377.978516 0)"/>
      <use xlink:href="#ArialMT-6e" transform="translate(433.59375 0)"/>
      <use xlink:href="#ArialMT-74" transform="translate(489.208984 0)"/>
      <use xlink:href="#ArialMT-20" transform="translate(516.992188 0)"/>
      <use xlink:href="#ArialMT-32" transform="translate(544.775391 0)"/>
     </g>
    </g>
   </g>
   <g id="patch_3">
    <path d="M 41.862344 337.24 
L 41.862344 87.24 
" style="fill: none; stroke: #cccccc; stroke-width: 0.8; stroke-linejoin: miter; stroke-linecap: square"/>
   </g>
   <g id="patch_4">
    <path d="M 41.862344 337.24 
L 352.282344 337.24 
" style="fill: none; stroke: #cccccc; stroke-width: 0.8; stroke-linejoin: miter; stroke-linecap: square"/>
   </g>
   <g id="PathCollection_1">
    <defs>
     <path id="m1b29460af2" d="M 0 5.477226 
C 1.452577 5.477226 2.845856 4.900111 3.872983 3.872983 
C 4.900111 2.845856 5.477226 1.452577 5.477226 0 
C 5.477226 -1.452577 4.900111 -2.845856 3.872983 -3.872983 
C 2.845856 -4.900111 1.452577 -5.477226 0 -5.477226 
C -1.452577 -5.477226 -2.845856 -4.900111 -3.872983 -3.872983 
C -4.900111 -2.845856 -5.477226 -1.452577 -5.477226 0 
C -5.477226 1.452577 -4.900111 2.845856 -3.872983 3.872983 
C -2.845856 4.900111 -1.452577 5.477226 0 5.477226 
z
" style="stroke: #ffffff; stroke-width: 1.5"/>
    </defs>
    <g clip-path="url(#p03be0180fb)">
     <use xlink:href="#m1b29460af2" x="337.206601" y="236.703332" style="fill: #ef3f37; stroke: #ffffff; stroke-width: 1.5"/>
     <use xlink:href="#m1b29460af2" x="337.738985" y="227.645934" style="fill: #ef3f37; stroke: #ffffff; stroke-width: 1.5"/>
     <use xlink:href="#m1b29460af2" x="338.172344" y="225.674793" style="fill: #ef3f37; stroke: #ffffff; stroke-width: 1.5"/>
    </g>
   </g>
   <g id="PathCollection_2">
    <defs>
     <path id="m8abeef52cb" d="M 0 5.477226 
C 1.452577 5.477226 2.845856 4.900111 3.872983 3.872983 
C 4.900111 2.845856 5.477226 1.452577 5.477226 0 
C 5.477226 -1.452577 4.900111 -2.845856 3.872983 -3.872983 
C 2.845856 -4.900111 1.452577 -5.477226 0 -5.477226 
C -1.452577 -5.477226 -2.845856 -4.900111 -3.872983 -3.872983 
C -4.900111 -2.845856 -5.477226 -1.452577 -5.477226 0 
C -5.477226 1.452577 -4.900111 2.845856 -3.872983 3.872983 
C -2.845856 4.900111 -1.452577 5.477226 0 5.477226 
z
" style="stroke: #ffffff; stroke-width: 1.5"/>
    </defs>
    <g clip-path="url(#p03be0180fb)">
     <use xlink:href="#m8abeef52cb" x="58.505476" y="325.876364" style="fill: #fbaf41; stroke: #ffffff; stroke-width: 1.5"/>
     <use xlink:href="#m8abeef52cb" x="57.901741" y="322.326862" style="fill: #fbaf41; stroke: #ffffff; stroke-width: 1.5"/>
     <use xlink:href="#m8abeef52cb" x="55.972344" y="324.736926" style="fill: #fbaf41; stroke: #ffffff; stroke-width: 1.5"/>
    </g>
   </g>
   <g id="PathCollection_3">
    <defs>
     <path id="mb9f2394bfb" d="M 0 5.477226 
C 1.452577 5.477226 2.845856 4.900111 3.872983 3.872983 
C 4.900111 2.845856 5.477226 1.452577 5.477226 0 
C 5.477226 -1.452577 4.900111 -2.845856 3.872983 -3.872983 
C 2.845856 -4.900111 1.452577 -5.477226 0 -5.477226 
C -1.452577 -5.477226 -2.845856 -4.900111 -3.872983 -3.872983 
C -4.900111 -2.845856 -5.477226 -1.452577 -5.477226 0 
C -5.477226 1.452577 -4.900111 2.845856 -3.872983 3.872983 
C -2.845856 4.900111 -1.452577 5.477226 0 5.477226 
z
" style="stroke: #ffffff; stroke-width: 1.5"/>
    </defs>
    <g clip-path="url(#p03be0180fb)">
     <use xlink:href="#mb9f2394bfb" x="84.230276" y="108.684779" style="fill: #262161; stroke: #ffffff; stroke-width: 1.5"/>
     <use xlink:href="#mb9f2394bfb" x="83.540715" y="98.603636" style="fill: #262161; stroke: #ffffff; stroke-width: 1.5"/>
     <use xlink:href="#mb9f2394bfb" x="83.77957" y="101.326444" style="fill: #262161; stroke: #ffffff; stroke-width: 1.5"/>
    </g>
   </g>
   <g id="text_18">
    <!-- Lipidomics -->
    <g style="fill: #9c27b0" transform="translate(162.765547 81.24) scale(0.13 -0.13)">
     <defs>
      <path id="Arial-BoldMT-4c" d="M 491 0 
L 491 4544 
L 1416 4544 
L 1416 772 
L 3716 772 
L 3716 0 
L 491 0 
z
" transform="scale(0.015625)"/>
      <path id="Arial-BoldMT-69" d="M 459 3769 
L 459 4581 
L 1338 4581 
L 1338 3769 
L 459 3769 
z
M 459 0 
L 459 3319 
L 1338 3319 
L 1338 0 
L 459 0 
z
" transform="scale(0.015625)"/>
      <path id="Arial-BoldMT-70" d="M 434 3319 
L 1253 3319 
L 1253 2831 
Q 1413 3081 1684 3237 
Q 1956 3394 2288 3394 
Q 2866 3394 3269 2941 
Q 3672 2488 3672 1678 
Q 3672 847 3265 386 
Q 2859 -75 2281 -75 
Q 2006 -75 1782 34 
Q 1559 144 1313 409 
L 1313 -1263 
L 434 -1263 
L 434 3319 
z
M 1303 1716 
Q 1303 1156 1525 889 
Q 1747 622 2066 622 
Q 2372 622 2575 867 
Q 2778 1113 2778 1672 
Q 2778 2194 2568 2447 
Q 2359 2700 2050 2700 
Q 1728 2700 1515 2451 
Q 1303 2203 1303 1716 
z
" transform="scale(0.015625)"/>
      <path id="Arial-BoldMT-64" d="M 3503 0 
L 2688 0 
L 2688 488 
Q 2484 203 2207 64 
Q 1931 -75 1650 -75 
Q 1078 -75 670 386 
Q 263 847 263 1672 
Q 263 2516 659 2955 
Q 1056 3394 1663 3394 
Q 2219 3394 2625 2931 
L 2625 4581 
L 3503 4581 
L 3503 0 
z
M 1159 1731 
Q 1159 1200 1306 963 
Q 1519 619 1900 619 
Q 2203 619 2415 876 
Q 2628 1134 2628 1647 
Q 2628 2219 2422 2470 
Q 2216 2722 1894 2722 
Q 1581 2722 1370 2473 
Q 1159 2225 1159 1731 
z
" transform="scale(0.015625)"/>
      <path id="Arial-BoldMT-6f" d="M 256 1706 
Q 256 2144 472 2553 
Q 688 2963 1083 3178 
Q 1478 3394 1966 3394 
Q 2719 3394 3200 2905 
Q 3681 2416 3681 1669 
Q 3681 916 3195 420 
Q 2709 -75 1972 -75 
Q 1516 -75 1102 131 
Q 688 338 472 736 
Q 256 1134 256 1706 
z
M 1156 1659 
Q 1156 1166 1390 903 
Q 1625 641 1969 641 
Q 2313 641 2545 903 
Q 2778 1166 2778 1666 
Q 2778 2153 2545 2415 
Q 2313 2678 1969 2678 
Q 1625 2678 1390 2415 
Q 1156 2153 1156 1659 
z
" transform="scale(0.015625)"/>
      <path id="Arial-BoldMT-6d" d="M 394 3319 
L 1203 3319 
L 1203 2866 
Q 1638 3394 2238 3394 
Q 2556 3394 2790 3262 
Q 3025 3131 3175 2866 
Q 3394 3131 3647 3262 
Q 3900 3394 4188 3394 
Q 4553 3394 4806 3245 
Q 5059 3097 5184 2809 
Q 5275 2597 5275 2122 
L 5275 0 
L 4397 0 
L 4397 1897 
Q 4397 2391 4306 2534 
Q 4184 2722 3931 2722 
Q 3747 2722 3584 2609 
Q 3422 2497 3350 2280 
Q 3278 2063 3278 1594 
L 3278 0 
L 2400 0 
L 2400 1819 
Q 2400 2303 2353 2443 
Q 2306 2584 2207 2653 
Q 2109 2722 1941 2722 
Q 1738 2722 1575 2612 
Q 1413 2503 1342 2297 
Q 1272 2091 1272 1613 
L 1272 0 
L 394 0 
L 394 3319 
z
" transform="scale(0.015625)"/>
      <path id="Arial-BoldMT-63" d="M 3353 2338 
L 2488 2181 
Q 2444 2441 2289 2572 
Q 2134 2703 1888 2703 
Q 1559 2703 1364 2476 
Q 1169 2250 1169 1719 
Q 1169 1128 1367 884 
Q 1566 641 1900 641 
Q 2150 641 2309 783 
Q 2469 925 2534 1272 
L 3397 1125 
Q 3263 531 2881 228 
Q 2500 -75 1859 -75 
Q 1131 -75 698 384 
Q 266 844 266 1656 
Q 266 2478 700 2936 
Q 1134 3394 1875 3394 
Q 2481 3394 2839 3133 
Q 3197 2872 3353 2338 
z
" transform="scale(0.015625)"/>
      <path id="Arial-BoldMT-73" d="M 150 947 
L 1031 1081 
Q 1088 825 1259 692 
Q 1431 559 1741 559 
Q 2081 559 2253 684 
Q 2369 772 2369 919 
Q 2369 1019 2306 1084 
Q 2241 1147 2013 1200 
Q 950 1434 666 1628 
Q 272 1897 272 2375 
Q 272 2806 612 3100 
Q 953 3394 1669 3394 
Q 2350 3394 2681 3172 
Q 3013 2950 3138 2516 
L 2309 2363 
Q 2256 2556 2107 2659 
Q 1959 2763 1684 2763 
Q 1338 2763 1188 2666 
Q 1088 2597 1088 2488 
Q 1088 2394 1175 2328 
Q 1294 2241 1995 2081 
Q 2697 1922 2975 1691 
Q 3250 1456 3250 1038 
Q 3250 581 2869 253 
Q 2488 -75 1741 -75 
Q 1063 -75 667 200 
Q 272 475 150 947 
z
" transform="scale(0.015625)"/>
     </defs>
     <use xlink:href="#Arial-BoldMT-4c"/>
     <use xlink:href="#Arial-BoldMT-69" transform="translate(61.083984 0)"/>
     <use xlink:href="#Arial-BoldMT-70" transform="translate(88.867188 0)"/>
     <use xlink:href="#Arial-BoldMT-69" transform="translate(149.951172 0)"/>
     <use xlink:href="#Arial-BoldMT-64" transform="translate(177.734375 0)"/>
     <use xlink:href="#Arial-BoldMT-6f" transform="translate(238.818359 0)"/>
     <use xlink:href="#Arial-BoldMT-6d" transform="translate(299.902344 0)"/>
     <use xlink:href="#Arial-BoldMT-69" transform="translate(388.818359 0)"/>
     <use xlink:href="#Arial-BoldMT-63" transform="translate(416.601562 0)"/>
     <use xlink:href="#Arial-BoldMT-73" transform="translate(472.216797 0)"/>
    </g>
   </g>
   <g id="legend_1">
    <g id="patch_5">
     <path d="M 269.508594 127.87 
L 346.682344 127.87 
Q 348.282344 127.87 348.282344 126.27 
L 348.282344 92.84 
Q 348.282344 91.24 346.682344 91.24 
L 269.508594 91.24 
Q 267.908594 91.24 267.908594 92.84 
L 267.908594 126.27 
Q 267.908594 127.87 269.508594 127.87 
z
" style="fill: #ffffff; opacity: 0.8; stroke: #cccccc; stroke-linejoin: miter"/>
    </g>
    <g id="PathCollection_4">
     <g>
      <use xlink:href="#m1b29460af2" x="279.108594" y="98.06625" style="fill: #ef3f37; stroke: #ffffff; stroke-width: 1.5"/>
     </g>
    </g>
    <g id="text_19">
     <!-- High-grade -->
     <g style="fill: #262626" transform="translate(293.508594 100.16625) scale(0.08 -0.08)">
      <defs>
       <path id="ArialMT-48" d="M 513 0 
L 513 4581 
L 1119 4581 
L 1119 2700 
L 3500 2700 
L 3500 4581 
L 4106 4581 
L 4106 0 
L 3500 0 
L 3500 2159 
L 1119 2159 
L 1119 0 
L 513 0 
z
" transform="scale(0.015625)"/>
       <path id="ArialMT-69" d="M 425 3934 
L 425 4581 
L 988 4581 
L 988 3934 
L 425 3934 
z
M 425 0 
L 425 3319 
L 988 3319 
L 988 0 
L 425 0 
z
" transform="scale(0.015625)"/>
       <path id="ArialMT-67" d="M 319 -275 
L 866 -356 
Q 900 -609 1056 -725 
Q 1266 -881 1628 -881 
Q 2019 -881 2231 -725 
Q 2444 -569 2519 -288 
Q 2563 -116 2559 434 
Q 2191 0 1641 0 
Q 956 0 581 494 
Q 206 988 206 1678 
Q 206 2153 378 2554 
Q 550 2956 876 3175 
Q 1203 3394 1644 3394 
Q 2231 3394 2613 2919 
L 2613 3319 
L 3131 3319 
L 3131 450 
Q 3131 -325 2973 -648 
Q 2816 -972 2473 -1159 
Q 2131 -1347 1631 -1347 
Q 1038 -1347 672 -1080 
Q 306 -813 319 -275 
z
M 784 1719 
Q 784 1066 1043 766 
Q 1303 466 1694 466 
Q 2081 466 2343 764 
Q 2606 1063 2606 1700 
Q 2606 2309 2336 2618 
Q 2066 2928 1684 2928 
Q 1309 2928 1046 2623 
Q 784 2319 784 1719 
z
" transform="scale(0.015625)"/>
       <path id="ArialMT-68" d="M 422 0 
L 422 4581 
L 984 4581 
L 984 2938 
Q 1378 3394 1978 3394 
Q 2347 3394 2619 3248 
Q 2891 3103 3008 2847 
Q 3125 2591 3125 2103 
L 3125 0 
L 2563 0 
L 2563 2103 
Q 2563 2525 2380 2717 
Q 2197 2909 1863 2909 
Q 1613 2909 1392 2779 
Q 1172 2650 1078 2428 
Q 984 2206 984 1816 
L 984 0 
L 422 0 
z
" transform="scale(0.015625)"/>
       <path id="ArialMT-2d" d="M 203 1375 
L 203 1941 
L 1931 1941 
L 1931 1375 
L 203 1375 
z
" transform="scale(0.015625)"/>
       <path id="ArialMT-72" d="M 416 0 
L 416 3319 
L 922 3319 
L 922 2816 
Q 1116 3169 1280 3281 
Q 1444 3394 1641 3394 
Q 1925 3394 2219 3213 
L 2025 2691 
Q 1819 2813 1613 2813 
Q 1428 2813 1281 2702 
Q 1134 2591 1072 2394 
Q 978 2094 978 1738 
L 978 0 
L 416 0 
z
" transform="scale(0.015625)"/>
       <path id="ArialMT-61" d="M 2588 409 
Q 2275 144 1986 34 
Q 1697 -75 1366 -75 
Q 819 -75 525 192 
Q 231 459 231 875 
Q 231 1119 342 1320 
Q 453 1522 633 1644 
Q 813 1766 1038 1828 
Q 1203 1872 1538 1913 
Q 2219 1994 2541 2106 
Q 2544 2222 2544 2253 
Q 2544 2597 2384 2738 
Q 2169 2928 1744 2928 
Q 1347 2928 1158 2789 
Q 969 2650 878 2297 
L 328 2372 
Q 403 2725 575 2942 
Q 747 3159 1072 3276 
Q 1397 3394 1825 3394 
Q 2250 3394 2515 3294 
Q 2781 3194 2906 3042 
Q 3031 2891 3081 2659 
Q 3109 2516 3109 2141 
L 3109 1391 
Q 3109 606 3145 398 
Q 3181 191 3288 0 
L 2700 0 
Q 2613 175 2588 409 
z
M 2541 1666 
Q 2234 1541 1622 1453 
Q 1275 1403 1131 1340 
Q 988 1278 909 1158 
Q 831 1038 831 891 
Q 831 666 1001 516 
Q 1172 366 1500 366 
Q 1825 366 2078 508 
Q 2331 650 2450 897 
Q 2541 1088 2541 1459 
L 2541 1666 
z
" transform="scale(0.015625)"/>
       <path id="ArialMT-64" d="M 2575 0 
L 2575 419 
Q 2259 -75 1647 -75 
Q 1250 -75 917 144 
Q 584 363 401 755 
Q 219 1147 219 1656 
Q 219 2153 384 2558 
Q 550 2963 881 3178 
Q 1213 3394 1622 3394 
Q 1922 3394 2156 3267 
Q 2391 3141 2538 2938 
L 2538 4581 
L 3097 4581 
L 3097 0 
L 2575 0 
z
M 797 1656 
Q 797 1019 1065 703 
Q 1334 388 1700 388 
Q 2069 388 2326 689 
Q 2584 991 2584 1609 
Q 2584 2291 2321 2609 
Q 2059 2928 1675 2928 
Q 1300 2928 1048 2622 
Q 797 2316 797 1656 
z
" transform="scale(0.015625)"/>
      </defs>
      <use xlink:href="#ArialMT-48"/>
      <use xlink:href="#ArialMT-69" transform="translate(72.216797 0)"/>
      <use xlink:href="#ArialMT-67" transform="translate(94.433594 0)"/>
      <use xlink:href="#ArialMT-68" transform="translate(150.048828 0)"/>
      <use xlink:href="#ArialMT-2d" transform="translate(205.664062 0)"/>
      <use xlink:href="#ArialMT-67" transform="translate(238.964844 0)"/>
      <use xlink:href="#ArialMT-72" transform="translate(294.580078 0)"/>
      <use xlink:href="#ArialMT-61" transform="translate(327.880859 0)"/>
      <use xlink:href="#ArialMT-64" transform="translate(383.496094 0)"/>
      <use xlink:href="#ArialMT-65" transform="translate(439.111328 0)"/>
     </g>
    </g>
    <g id="PathCollection_5">
     <g>
      <use xlink:href="#m8abeef52cb" x="279.108594" y="109.47625" style="fill: #fbaf41; stroke: #ffffff; stroke-width: 1.5"/>
     </g>
    </g>
    <g id="text_20">
     <!-- Medium-grade -->
     <g style="fill: #262626" transform="translate(293.508594 111.57625) scale(0.08 -0.08)">
      <defs>
       <path id="ArialMT-4d" d="M 475 0 
L 475 4581 
L 1388 4581 
L 2472 1338 
Q 2622 884 2691 659 
Q 2769 909 2934 1394 
L 4031 4581 
L 4847 4581 
L 4847 0 
L 4263 0 
L 4263 3834 
L 2931 0 
L 2384 0 
L 1059 3900 
L 1059 0 
L 475 0 
z
" transform="scale(0.015625)"/>
       <path id="ArialMT-75" d="M 2597 0 
L 2597 488 
Q 2209 -75 1544 -75 
Q 1250 -75 995 37 
Q 741 150 617 320 
Q 494 491 444 738 
Q 409 903 409 1263 
L 409 3319 
L 972 3319 
L 972 1478 
Q 972 1038 1006 884 
Q 1059 663 1231 536 
Q 1403 409 1656 409 
Q 1909 409 2131 539 
Q 2353 669 2445 892 
Q 2538 1116 2538 1541 
L 2538 3319 
L 3100 3319 
L 3100 0 
L 2597 0 
z
" transform="scale(0.015625)"/>
      </defs>
      <use xlink:href="#ArialMT-4d"/>
      <use xlink:href="#ArialMT-65" transform="translate(83.300781 0)"/>
      <use xlink:href="#ArialMT-64" transform="translate(138.916016 0)"/>
      <use xlink:href="#ArialMT-69" transform="translate(194.53125 0)"/>
      <use xlink:href="#ArialMT-75" transform="translate(216.748047 0)"/>
      <use xlink:href="#ArialMT-6d" transform="translate(272.363281 0)"/>
      <use xlink:href="#ArialMT-2d" transform="translate(355.664062 0)"/>
      <use xlink:href="#ArialMT-67" transform="translate(388.964844 0)"/>
      <use xlink:href="#ArialMT-72" transform="translate(444.580078 0)"/>
      <use xlink:href="#ArialMT-61" transform="translate(477.880859 0)"/>
      <use xlink:href="#ArialMT-64" transform="translate(533.496094 0)"/>
      <use xlink:href="#ArialMT-65" transform="translate(589.111328 0)"/>
     </g>
    </g>
    <g id="PathCollection_6">
     <g>
      <use xlink:href="#mb9f2394bfb" x="279.108594" y="120.88625" style="fill: #262161; stroke: #ffffff; stroke-width: 1.5"/>
     </g>
    </g>
    <g id="text_21">
     <!-- Low-grade -->
     <g style="fill: #262626" transform="translate(293.508594 122.98625) scale(0.08 -0.08)">
      <defs>
       <path id="ArialMT-4c" d="M 469 0 
L 469 4581 
L 1075 4581 
L 1075 541 
L 3331 541 
L 3331 0 
L 469 0 
z
" transform="scale(0.015625)"/>
       <path id="ArialMT-77" d="M 1034 0 
L 19 3319 
L 600 3319 
L 1128 1403 
L 1325 691 
Q 1338 744 1497 1375 
L 2025 3319 
L 2603 3319 
L 3100 1394 
L 3266 759 
L 3456 1400 
L 4025 3319 
L 4572 3319 
L 3534 0 
L 2950 0 
L 2422 1988 
L 2294 2553 
L 1622 0 
L 1034 0 
z
" transform="scale(0.015625)"/>
      </defs>
      <use xlink:href="#ArialMT-4c"/>
      <use xlink:href="#ArialMT-6f" transform="translate(55.615234 0)"/>
      <use xlink:href="#ArialMT-77" transform="translate(111.230469 0)"/>
      <use xlink:href="#ArialMT-2d" transform="translate(183.447266 0)"/>
      <use xlink:href="#ArialMT-67" transform="translate(216.748047 0)"/>
      <use xlink:href="#ArialMT-72" transform="translate(272.363281 0)"/>
      <use xlink:href="#ArialMT-61" transform="translate(305.664062 0)"/>
      <use xlink:href="#ArialMT-64" transform="translate(361.279297 0)"/>
      <use xlink:href="#ArialMT-65" transform="translate(416.894531 0)"/>
     </g>
    </g>
   </g>
  </g>
  <g id="axes_2">
   <g id="patch_6">
    <path d="M 398.892344 337.24 
L 709.312344 337.24 
L 709.312344 87.24 
L 398.892344 87.24 
z
" style="fill: #ffffff"/>
   </g>
   <g id="matplotlib.axis_3">
    <g id="xtick_8">
     <g id="line2d_16">
      <path d="M 407.170762 337.24 
L 407.170762 87.24 
" clip-path="url(#pe8bbc9eab9)" style="fill: none; stroke: #cccccc; stroke-width: 0.8; stroke-linecap: round"/>
     </g>
     <g id="text_22">
      <!-- −4 -->
      <g style="fill: #262626" transform="translate(400.899903 352.113594) scale(0.11 -0.11)">
       <use xlink:href="#ArialMT-2212"/>
       <use xlink:href="#ArialMT-34" transform="translate(58.398438 0)"/>
      </g>
     </g>
    </g>
    <g id="xtick_9">
     <g id="line2d_17">
      <path d="M 459.821196 337.24 
L 459.821196 87.24 
" clip-path="url(#pe8bbc9eab9)" style="fill: none; stroke: #cccccc; stroke-width: 0.8; stroke-linecap: round"/>
     </g>
     <g id="text_23">
      <!-- −2 -->
      <g style="fill: #262626" transform="translate(453.550337 352.113594) scale(0.11 -0.11)">
       <use xlink:href="#ArialMT-2212"/>
       <use xlink:href="#ArialMT-32" transform="translate(58.398438 0)"/>
      </g>
     </g>
    </g>
    <g id="xtick_10">
     <g id="line2d_18">
      <path d="M 512.47163 337.24 
L 512.47163 87.24 
" clip-path="url(#pe8bbc9eab9)" style="fill: none; stroke: #cccccc; stroke-width: 0.8; stroke-linecap: round"/>
     </g>
     <g id="text_24">
      <!-- 0 -->
      <g style="fill: #262626" transform="translate(509.413114 352.113594) scale(0.11 -0.11)">
       <use xlink:href="#ArialMT-30"/>
      </g>
     </g>
    </g>
    <g id="xtick_11">
     <g id="line2d_19">
      <path d="M 565.122064 337.24 
L 565.122064 87.24 
" clip-path="url(#pe8bbc9eab9)" style="fill: none; stroke: #cccccc; stroke-width: 0.8; stroke-linecap: round"/>
     </g>
     <g id="text_25">
      <!-- 2 -->
      <g style="fill: #262626" transform="translate(562.063548 352.113594) scale(0.11 -0.11)">
       <use xlink:href="#ArialMT-32"/>
      </g>
     </g>
    </g>
    <g id="xtick_12">
     <g id="line2d_20">
      <path d="M 617.772498 337.24 
L 617.772498 87.24 
" clip-path="url(#pe8bbc9eab9)" style="fill: none; stroke: #cccccc; stroke-width: 0.8; stroke-linecap: round"/>
     </g>
     <g id="text_26">
      <!-- 4 -->
      <g style="fill: #262626" transform="translate(614.713982 352.113594) scale(0.11 -0.11)">
       <use xlink:href="#ArialMT-34"/>
      </g>
     </g>
    </g>
    <g id="xtick_13">
     <g id="line2d_21">
      <path d="M 670.422932 337.24 
L 670.422932 87.24 
" clip-path="url(#pe8bbc9eab9)" style="fill: none; stroke: #cccccc; stroke-width: 0.8; stroke-linecap: round"/>
     </g>
     <g id="text_27">
      <!-- 6 -->
      <g style="fill: #262626" transform="translate(667.364416 352.113594) scale(0.11 -0.11)">
       <use xlink:href="#ArialMT-36"/>
      </g>
     </g>
    </g>
    <g id="text_28">
     <!-- Component 1 -->
     <g style="fill: #262626" transform="translate(518.081719 367.035469) scale(0.12 -0.12)">
      <use xlink:href="#ArialMT-43"/>
      <use xlink:href="#ArialMT-6f" transform="translate(72.216797 0)"/>
      <use xlink:href="#ArialMT-6d" transform="translate(127.832031 0)"/>
      <use xlink:href="#ArialMT-70" transform="translate(211.132812 0)"/>
      <use xlink:href="#ArialMT-6f" transform="translate(266.748047 0)"/>
      <use xlink:href="#ArialMT-6e" transform="translate(322.363281 0)"/>
      <use xlink:href="#ArialMT-65" transform="translate(377.978516 0)"/>
      <use xlink:href="#ArialMT-6e" transform="translate(433.59375 0)"/>
      <use xlink:href="#ArialMT-74" transform="translate(489.208984 0)"/>
      <use xlink:href="#ArialMT-20" transform="translate(516.992188 0)"/>
      <use xlink:href="#ArialMT-31" transform="translate(544.775391 0)"/>
     </g>
    </g>
   </g>
   <g id="matplotlib.axis_4">
    <g id="ytick_9">
     <g id="line2d_22">
      <path d="M 398.892344 316.657681 
L 709.312344 316.657681 
" clip-path="url(#pe8bbc9eab9)" style="fill: none; stroke: #cccccc; stroke-width: 0.8; stroke-linecap: round"/>
     </g>
     <g id="text_29">
      <!-- −6 -->
      <g style="fill: #262626" transform="translate(379.350625 320.594478) scale(0.11 -0.11)">
       <use xlink:href="#ArialMT-2212"/>
       <use xlink:href="#ArialMT-36" transform="translate(58.398438 0)"/>
      </g>
     </g>
    </g>
    <g id="ytick_10">
     <g id="line2d_23">
      <path d="M 398.892344 282.966821 
L 709.312344 282.966821 
" clip-path="url(#pe8bbc9eab9)" style="fill: none; stroke: #cccccc; stroke-width: 0.8; stroke-linecap: round"/>
     </g>
     <g id="text_30">
      <!-- −4 -->
      <g style="fill: #262626" transform="translate(379.350625 286.903618) scale(0.11 -0.11)">
       <use xlink:href="#ArialMT-2212"/>
       <use xlink:href="#ArialMT-34" transform="translate(58.398438 0)"/>
      </g>
     </g>
    </g>
    <g id="ytick_11">
     <g id="line2d_24">
      <path d="M 398.892344 249.275961 
L 709.312344 249.275961 
" clip-path="url(#pe8bbc9eab9)" style="fill: none; stroke: #cccccc; stroke-width: 0.8; stroke-linecap: round"/>
     </g>
     <g id="text_31">
      <!-- −2 -->
      <g style="fill: #262626" transform="translate(379.350625 253.212758) scale(0.11 -0.11)">
       <use xlink:href="#ArialMT-2212"/>
       <use xlink:href="#ArialMT-32" transform="translate(58.398438 0)"/>
      </g>
     </g>
    </g>
    <g id="ytick_12">
     <g id="line2d_25">
      <path d="M 398.892344 215.585101 
L 709.312344 215.585101 
" clip-path="url(#pe8bbc9eab9)" style="fill: none; stroke: #cccccc; stroke-width: 0.8; stroke-linecap: round"/>
     </g>
     <g id="text_32">
      <!-- 0 -->
      <g style="fill: #262626" transform="translate(385.775313 219.521898) scale(0.11 -0.11)">
       <use xlink:href="#ArialMT-30"/>
      </g>
     </g>
    </g>
    <g id="ytick_13">
     <g id="line2d_26">
      <path d="M 398.892344 181.894241 
L 709.312344 181.894241 
" clip-path="url(#pe8bbc9eab9)" style="fill: none; stroke: #cccccc; stroke-width: 0.8; stroke-linecap: round"/>
     </g>
     <g id="text_33">
      <!-- 2 -->
      <g style="fill: #262626" transform="translate(385.775313 185.831038) scale(0.11 -0.11)">
       <use xlink:href="#ArialMT-32"/>
      </g>
     </g>
    </g>
    <g id="ytick_14">
     <g id="line2d_27">
      <path d="M 398.892344 148.203382 
L 709.312344 148.203382 
" clip-path="url(#pe8bbc9eab9)" style="fill: none; stroke: #cccccc; stroke-width: 0.8; stroke-linecap: round"/>
     </g>
     <g id="text_34">
      <!-- 4 -->
      <g style="fill: #262626" transform="translate(385.775313 152.140178) scale(0.11 -0.11)">
       <use xlink:href="#ArialMT-34"/>
      </g>
     </g>
    </g>
    <g id="ytick_15">
     <g id="line2d_28">
      <path d="M 398.892344 114.512522 
L 709.312344 114.512522 
" clip-path="url(#pe8bbc9eab9)" style="fill: none; stroke: #cccccc; stroke-width: 0.8; stroke-linecap: round"/>
     </g>
     <g id="text_35">
      <!-- 6 -->
      <g style="fill: #262626" transform="translate(385.775313 118.449319) scale(0.11 -0.11)">
       <use xlink:href="#ArialMT-36"/>
      </g>
     </g>
    </g>
    <g id="text_36">
     <!-- Component 2 -->
     <g style="fill: #262626" transform="translate(372.965625 248.260625) rotate(-90) scale(0.12 -0.12)">
      <use xlink:href="#ArialMT-43"/>
      <use xlink:href="#ArialMT-6f" transform="translate(72.216797 0)"/>
      <use xlink:href="#ArialMT-6d" transform="translate(127.832031 0)"/>
      <use xlink:href="#ArialMT-70" transform="translate(211.132812 0)"/>
      <use xlink:href="#ArialMT-6f" transform="translate(266.748047 0)"/>
      <use xlink:href="#ArialMT-6e" transform="translate(322.363281 0)"/>
      <use xlink:href="#ArialMT-65" transform="translate(377.978516 0)"/>
      <use xlink:href="#ArialMT-6e" transform="translate(433.59375 0)"/>
      <use xlink:href="#ArialMT-74" transform="translate(489.208984 0)"/>
      <use xlink:href="#ArialMT-20" transform="translate(516.992188 0)"/>
      <use xlink:href="#ArialMT-32" transform="translate(544.775391 0)"/>
     </g>
    </g>
   </g>
   <g id="patch_7">
    <path d="M 398.892344 337.24 
L 398.892344 87.24 
" style="fill: none; stroke: #cccccc; stroke-width: 0.8; stroke-linejoin: miter; stroke-linecap: square"/>
   </g>
   <g id="patch_8">
    <path d="M 398.892344 337.24 
L 709.312344 337.24 
" style="fill: none; stroke: #cccccc; stroke-width: 0.8; stroke-linejoin: miter; stroke-linecap: square"/>
   </g>
   <g id="PathCollection_7">
    <g clip-path="url(#pe8bbc9eab9)">
     <use xlink:href="#m1b29460af2" x="694.098465" y="233.403246" style="fill: #ef3f37; stroke: #ffffff; stroke-width: 1.5"/>
     <use xlink:href="#m1b29460af2" x="692.592977" y="199.92157" style="fill: #ef3f37; stroke: #ffffff; stroke-width: 1.5"/>
     <use xlink:href="#m1b29460af2" x="695.202344" y="232.392407" style="fill: #ef3f37; stroke: #ffffff; stroke-width: 1.5"/>
    </g>
   </g>
   <g id="PathCollection_8">
    <g clip-path="url(#pe8bbc9eab9)">
     <use xlink:href="#m8abeef52cb" x="413.002344" y="325.876364" style="fill: #fbaf41; stroke: #ffffff; stroke-width: 1.5"/>
     <use xlink:href="#m8abeef52cb" x="415.352596" y="324.890857" style="fill: #fbaf41; stroke: #ffffff; stroke-width: 1.5"/>
     <use xlink:href="#m8abeef52cb" x="413.599351" y="322.83926" style="fill: #fbaf41; stroke: #ffffff; stroke-width: 1.5"/>
    </g>
   </g>
   <g id="PathCollection_9">
    <g clip-path="url(#pe8bbc9eab9)">
     <use xlink:href="#mb9f2394bfb" x="429.726159" y="101.763604" style="fill: #262161; stroke: #ffffff; stroke-width: 1.5"/>
     <use xlink:href="#mb9f2394bfb" x="429.048573" y="100.574966" style="fill: #262161; stroke: #ffffff; stroke-width: 1.5"/>
     <use xlink:href="#mb9f2394bfb" x="429.621862" y="98.603636" style="fill: #262161; stroke: #ffffff; stroke-width: 1.5"/>
    </g>
   </g>
   <g id="text_37">
    <!-- Metabolomics -->
    <g style="fill: #ff9800" transform="translate(510.763594 81.24) scale(0.13 -0.13)">
     <defs>
      <path id="Arial-BoldMT-4d" d="M 453 0 
L 453 4581 
L 1838 4581 
L 2669 1456 
L 3491 4581 
L 4878 4581 
L 4878 0 
L 4019 0 
L 4019 3606 
L 3109 0 
L 2219 0 
L 1313 3606 
L 1313 0 
L 453 0 
z
" transform="scale(0.015625)"/>
      <path id="Arial-BoldMT-65" d="M 2381 1056 
L 3256 909 
Q 3088 428 2723 176 
Q 2359 -75 1813 -75 
Q 947 -75 531 491 
Q 203 944 203 1634 
Q 203 2459 634 2926 
Q 1066 3394 1725 3394 
Q 2466 3394 2894 2905 
Q 3322 2416 3303 1406 
L 1103 1406 
Q 1113 1016 1316 798 
Q 1519 581 1822 581 
Q 2028 581 2168 693 
Q 2309 806 2381 1056 
z
M 2431 1944 
Q 2422 2325 2234 2523 
Q 2047 2722 1778 2722 
Q 1491 2722 1303 2513 
Q 1116 2303 1119 1944 
L 2431 1944 
z
" transform="scale(0.015625)"/>
      <path id="Arial-BoldMT-74" d="M 1981 3319 
L 1981 2619 
L 1381 2619 
L 1381 1281 
Q 1381 875 1398 808 
Q 1416 741 1477 697 
Q 1538 653 1625 653 
Q 1747 653 1978 738 
L 2053 56 
Q 1747 -75 1359 -75 
Q 1122 -75 931 4 
Q 741 84 652 211 
Q 563 338 528 553 
Q 500 706 500 1172 
L 500 2619 
L 97 2619 
L 97 3319 
L 500 3319 
L 500 3978 
L 1381 4491 
L 1381 3319 
L 1981 3319 
z
" transform="scale(0.015625)"/>
      <path id="Arial-BoldMT-61" d="M 1116 2306 
L 319 2450 
Q 453 2931 781 3162 
Q 1109 3394 1756 3394 
Q 2344 3394 2631 3255 
Q 2919 3116 3036 2902 
Q 3153 2688 3153 2116 
L 3144 1091 
Q 3144 653 3186 445 
Q 3228 238 3344 0 
L 2475 0 
Q 2441 88 2391 259 
Q 2369 338 2359 363 
Q 2134 144 1878 34 
Q 1622 -75 1331 -75 
Q 819 -75 523 203 
Q 228 481 228 906 
Q 228 1188 362 1408 
Q 497 1628 739 1745 
Q 981 1863 1438 1950 
Q 2053 2066 2291 2166 
L 2291 2253 
Q 2291 2506 2166 2614 
Q 2041 2722 1694 2722 
Q 1459 2722 1328 2630 
Q 1197 2538 1116 2306 
z
M 2291 1594 
Q 2122 1538 1756 1459 
Q 1391 1381 1278 1306 
Q 1106 1184 1106 997 
Q 1106 813 1243 678 
Q 1381 544 1594 544 
Q 1831 544 2047 700 
Q 2206 819 2256 991 
Q 2291 1103 2291 1419 
L 2291 1594 
z
" transform="scale(0.015625)"/>
      <path id="Arial-BoldMT-62" d="M 422 0 
L 422 4581 
L 1300 4581 
L 1300 2931 
Q 1706 3394 2263 3394 
Q 2869 3394 3266 2955 
Q 3663 2516 3663 1694 
Q 3663 844 3258 384 
Q 2853 -75 2275 -75 
Q 1991 -75 1714 67 
Q 1438 209 1238 488 
L 1238 0 
L 422 0 
z
M 1294 1731 
Q 1294 1216 1456 969 
Q 1684 619 2063 619 
Q 2353 619 2558 867 
Q 2763 1116 2763 1650 
Q 2763 2219 2556 2470 
Q 2350 2722 2028 2722 
Q 1713 2722 1503 2476 
Q 1294 2231 1294 1731 
z
" transform="scale(0.015625)"/>
      <path id="Arial-BoldMT-6c" d="M 459 0 
L 459 4581 
L 1338 4581 
L 1338 0 
L 459 0 
z
" transform="scale(0.015625)"/>
     </defs>
     <use xlink:href="#Arial-BoldMT-4d"/>
     <use xlink:href="#Arial-BoldMT-65" transform="translate(83.300781 0)"/>
     <use xlink:href="#Arial-BoldMT-74" transform="translate(138.916016 0)"/>
     <use xlink:href="#Arial-BoldMT-61" transform="translate(172.216797 0)"/>
     <use xlink:href="#Arial-BoldMT-62" transform="translate(227.832031 0)"/>
     <use xlink:href="#Arial-BoldMT-6f" transform="translate(288.916016 0)"/>
     <use xlink:href="#Arial-BoldMT-6c" transform="translate(350 0)"/>
     <use xlink:href="#Arial-BoldMT-6f" transform="translate(377.783203 0)"/>
     <use xlink:href="#Arial-BoldMT-6d" transform="translate(438.867188 0)"/>
     <use xlink:href="#Arial-BoldMT-69" transform="translate(527.783203 0)"/>
     <use xlink:href="#Arial-BoldMT-63" transform="translate(555.566406 0)"/>
     <use xlink:href="#Arial-BoldMT-73" transform="translate(611.181641 0)"/>
    </g>
   </g>
   <g id="legend_2">
    <g id="patch_9">
     <path d="M 626.538594 127.87 
L 703.712344 127.87 
Q 705.312344 127.87 705.312344 126.27 
L 705.312344 92.84 
Q 705.312344 91.24 703.712344 91.24 
L 626.538594 91.24 
Q 624.938594 91.24 624.938594 92.84 
L 624.938594 126.27 
Q 624.938594 127.87 626.538594 127.87 
z
" style="fill: #ffffff; opacity: 0.8; stroke: #cccccc; stroke-linejoin: miter"/>
    </g>
    <g id="PathCollection_10">
     <g>
      <use xlink:href="#m1b29460af2" x="636.138594" y="98.06625" style="fill: #ef3f37; stroke: #ffffff; stroke-width: 1.5"/>
     </g>
    </g>
    <g id="text_38">
     <!-- High-grade -->
     <g style="fill: #262626" transform="translate(650.538594 100.16625) scale(0.08 -0.08)">
      <use xlink:href="#ArialMT-48"/>
      <use xlink:href="#ArialMT-69" transform="translate(72.216797 0)"/>
      <use xlink:href="#ArialMT-67" transform="translate(94.433594 0)"/>
      <use xlink:href="#ArialMT-68" transform="translate(150.048828 0)"/>
      <use xlink:href="#ArialMT-2d" transform="translate(205.664062 0)"/>
      <use xlink:href="#ArialMT-67" transform="translate(238.964844 0)"/>
      <use xlink:href="#ArialMT-72" transform="translate(294.580078 0)"/>
      <use xlink:href="#ArialMT-61" transform="translate(327.880859 0)"/>
      <use xlink:href="#ArialMT-64" transform="translate(383.496094 0)"/>
      <use xlink:href="#ArialMT-65" transform="translate(439.111328 0)"/>
     </g>
    </g>
    <g id="PathCollection_11">
     <g>
      <use xlink:href="#m8abeef52cb" x="636.138594" y="109.47625" style="fill: #fbaf41; stroke: #ffffff; stroke-width: 1.5"/>
     </g>
    </g>
    <g id="text_39">
     <!-- Medium-grade -->
     <g style="fill: #262626" transform="translate(650.538594 111.57625) scale(0.08 -0.08)">
      <use xlink:href="#ArialMT-4d"/>
      <use xlink:href="#ArialMT-65" transform="translate(83.300781 0)"/>
      <use xlink:href="#ArialMT-64" transform="translate(138.916016 0)"/>
      <use xlink:href="#ArialMT-69" transform="translate(194.53125 0)"/>
      <use xlink:href="#ArialMT-75" transform="translate(216.748047 0)"/>
      <use xlink:href="#ArialMT-6d" transform="translate(272.363281 0)"/>
      <use xlink:href="#ArialMT-2d" transform="translate(355.664062 0)"/>
      <use xlink:href="#ArialMT-67" transform="translate(388.964844 0)"/>
      <use xlink:href="#ArialMT-72" transform="translate(444.580078 0)"/>
      <use xlink:href="#ArialMT-61" transform="translate(477.880859 0)"/>
      <use xlink:href="#ArialMT-64" transform="translate(533.496094 0)"/>
      <use xlink:href="#ArialMT-65" transform="translate(589.111328 0)"/>
     </g>
    </g>
    <g id="PathCollection_12">
     <g>
      <use xlink:href="#mb9f2394bfb" x="636.138594" y="120.88625" style="fill: #262161; stroke: #ffffff; stroke-width: 1.5"/>
     </g>
    </g>
    <g id="text_40">
     <!-- Low-grade -->
     <g style="fill: #262626" transform="translate(650.538594 122.98625) scale(0.08 -0.08)">
      <use xlink:href="#ArialMT-4c"/>
      <use xlink:href="#ArialMT-6f" transform="translate(55.615234 0)"/>
      <use xlink:href="#ArialMT-77" transform="translate(111.230469 0)"/>
      <use xlink:href="#ArialMT-2d" transform="translate(183.447266 0)"/>
      <use xlink:href="#ArialMT-67" transform="translate(216.748047 0)"/>
      <use xlink:href="#ArialMT-72" transform="translate(272.363281 0)"/>
      <use xlink:href="#ArialMT-61" transform="translate(305.664062 0)"/>
      <use xlink:href="#ArialMT-64" transform="translate(361.279297 0)"/>
      <use xlink:href="#ArialMT-65" transform="translate(416.894531 0)"/>
     </g>
    </g>
   </g>
  </g>
  <g id="axes_3">
   <g id="patch_10">
    <path d="M 755.922344 337.24 
L 1066.342344 337.24 
L 1066.342344 87.24 
L 755.922344 87.24 
z
" style="fill: #ffffff"/>
   </g>
   <g id="matplotlib.axis_5">
    <g id="xtick_14">
     <g id="line2d_29">
      <path d="M 786.970209 337.24 
L 786.970209 87.24 
" clip-path="url(#p685a3a5391)" style="fill: none; stroke: #cccccc; stroke-width: 0.8; stroke-linecap: round"/>
     </g>
     <g id="text_41">
      <!-- −4 -->
      <g style="fill: #262626" transform="translate(780.69935 352.113594) scale(0.11 -0.11)">
       <use xlink:href="#ArialMT-2212"/>
       <use xlink:href="#ArialMT-34" transform="translate(58.398438 0)"/>
      </g>
     </g>
    </g>
    <g id="xtick_15">
     <g id="line2d_30">
      <path d="M 830.91979 337.24 
L 830.91979 87.24 
" clip-path="url(#p685a3a5391)" style="fill: none; stroke: #cccccc; stroke-width: 0.8; stroke-linecap: round"/>
     </g>
     <g id="text_42">
      <!-- −2 -->
      <g style="fill: #262626" transform="translate(824.648931 352.113594) scale(0.11 -0.11)">
       <use xlink:href="#ArialMT-2212"/>
       <use xlink:href="#ArialMT-32" transform="translate(58.398438 0)"/>
      </g>
     </g>
    </g>
    <g id="xtick_16">
     <g id="line2d_31">
      <path d="M 874.869371 337.24 
L 874.869371 87.24 
" clip-path="url(#p685a3a5391)" style="fill: none; stroke: #cccccc; stroke-width: 0.8; stroke-linecap: round"/>
     </g>
     <g id="text_43">
      <!-- 0 -->
      <g style="fill: #262626" transform="translate(871.810855 352.113594) scale(0.11 -0.11)">
       <use xlink:href="#ArialMT-30"/>
      </g>
     </g>
    </g>
    <g id="xtick_17">
     <g id="line2d_32">
      <path d="M 918.818951 337.24 
L 918.818951 87.24 
" clip-path="url(#p685a3a5391)" style="fill: none; stroke: #cccccc; stroke-width: 0.8; stroke-linecap: round"/>
     </g>
     <g id="text_44">
      <!-- 2 -->
      <g style="fill: #262626" transform="translate(915.760435 352.113594) scale(0.11 -0.11)">
       <use xlink:href="#ArialMT-32"/>
      </g>
     </g>
    </g>
    <g id="xtick_18">
     <g id="line2d_33">
      <path d="M 962.768532 337.24 
L 962.768532 87.24 
" clip-path="url(#p685a3a5391)" style="fill: none; stroke: #cccccc; stroke-width: 0.8; stroke-linecap: round"/>
     </g>
     <g id="text_45">
      <!-- 4 -->
      <g style="fill: #262626" transform="translate(959.710016 352.113594) scale(0.11 -0.11)">
       <use xlink:href="#ArialMT-34"/>
      </g>
     </g>
    </g>
    <g id="xtick_19">
     <g id="line2d_34">
      <path d="M 1006.718112 337.24 
L 1006.718112 87.24 
" clip-path="url(#p685a3a5391)" style="fill: none; stroke: #cccccc; stroke-width: 0.8; stroke-linecap: round"/>
     </g>
     <g id="text_46">
      <!-- 6 -->
      <g style="fill: #262626" transform="translate(1003.659596 352.113594) scale(0.11 -0.11)">
       <use xlink:href="#ArialMT-36"/>
      </g>
     </g>
    </g>
    <g id="xtick_20">
     <g id="line2d_35">
      <path d="M 1050.667693 337.24 
L 1050.667693 87.24 
" clip-path="url(#p685a3a5391)" style="fill: none; stroke: #cccccc; stroke-width: 0.8; stroke-linecap: round"/>
     </g>
     <g id="text_47">
      <!-- 8 -->
      <g style="fill: #262626" transform="translate(1047.609177 352.113594) scale(0.11 -0.11)">
       <use xlink:href="#ArialMT-38"/>
      </g>
     </g>
    </g>
    <g id="text_48">
     <!-- Component 1 -->
     <g style="fill: #262626" transform="translate(875.111719 367.035469) scale(0.12 -0.12)">
      <use xlink:href="#ArialMT-43"/>
      <use xlink:href="#ArialMT-6f" transform="translate(72.216797 0)"/>
      <use xlink:href="#ArialMT-6d" transform="translate(127.832031 0)"/>
      <use xlink:href="#ArialMT-70" transform="translate(211.132812 0)"/>
      <use xlink:href="#ArialMT-6f" transform="translate(266.748047 0)"/>
      <use xlink:href="#ArialMT-6e" transform="translate(322.363281 0)"/>
      <use xlink:href="#ArialMT-65" transform="translate(377.978516 0)"/>
      <use xlink:href="#ArialMT-6e" transform="translate(433.59375 0)"/>
      <use xlink:href="#ArialMT-74" transform="translate(489.208984 0)"/>
      <use xlink:href="#ArialMT-20" transform="translate(516.992188 0)"/>
      <use xlink:href="#ArialMT-31" transform="translate(544.775391 0)"/>
     </g>
    </g>
   </g>
   <g id="matplotlib.axis_6">
    <g id="ytick_16">
     <g id="line2d_36">
      <path d="M 755.922344 313.621555 
L 1066.342344 313.621555 
" clip-path="url(#p685a3a5391)" style="fill: none; stroke: #cccccc; stroke-width: 0.8; stroke-linecap: round"/>
     </g>
     <g id="text_49">
      <!-- −6 -->
      <g style="fill: #262626" transform="translate(736.380625 317.558352) scale(0.11 -0.11)">
       <use xlink:href="#ArialMT-2212"/>
       <use xlink:href="#ArialMT-36" transform="translate(58.398438 0)"/>
      </g>
     </g>
    </g>
    <g id="ytick_17">
     <g id="line2d_37">
      <path d="M 755.922344 281.433678 
L 1066.342344 281.433678 
" clip-path="url(#p685a3a5391)" style="fill: none; stroke: #cccccc; stroke-width: 0.8; stroke-linecap: round"/>
     </g>
     <g id="text_50">
      <!-- −4 -->
      <g style="fill: #262626" transform="translate(736.380625 285.370475) scale(0.11 -0.11)">
       <use xlink:href="#ArialMT-2212"/>
       <use xlink:href="#ArialMT-34" transform="translate(58.398438 0)"/>
      </g>
     </g>
    </g>
    <g id="ytick_18">
     <g id="line2d_38">
      <path d="M 755.922344 249.2458 
L 1066.342344 249.2458 
" clip-path="url(#p685a3a5391)" style="fill: none; stroke: #cccccc; stroke-width: 0.8; stroke-linecap: round"/>
     </g>
     <g id="text_51">
      <!-- −2 -->
      <g style="fill: #262626" transform="translate(736.380625 253.182597) scale(0.11 -0.11)">
       <use xlink:href="#ArialMT-2212"/>
       <use xlink:href="#ArialMT-32" transform="translate(58.398438 0)"/>
      </g>
     </g>
    </g>
    <g id="ytick_19">
     <g id="line2d_39">
      <path d="M 755.922344 217.057923 
L 1066.342344 217.057923 
" clip-path="url(#p685a3a5391)" style="fill: none; stroke: #cccccc; stroke-width: 0.8; stroke-linecap: round"/>
     </g>
     <g id="text_52">
      <!-- 0 -->
      <g style="fill: #262626" transform="translate(742.805313 220.99472) scale(0.11 -0.11)">
       <use xlink:href="#ArialMT-30"/>
      </g>
     </g>
    </g>
    <g id="ytick_20">
     <g id="line2d_40">
      <path d="M 755.922344 184.870046 
L 1066.342344 184.870046 
" clip-path="url(#p685a3a5391)" style="fill: none; stroke: #cccccc; stroke-width: 0.8; stroke-linecap: round"/>
     </g>
     <g id="text_53">
      <!-- 2 -->
      <g style="fill: #262626" transform="translate(742.805313 188.806843) scale(0.11 -0.11)">
       <use xlink:href="#ArialMT-32"/>
      </g>
     </g>
    </g>
    <g id="ytick_21">
     <g id="line2d_41">
      <path d="M 755.922344 152.682168 
L 1066.342344 152.682168 
" clip-path="url(#p685a3a5391)" style="fill: none; stroke: #cccccc; stroke-width: 0.8; stroke-linecap: round"/>
     </g>
     <g id="text_54">
      <!-- 4 -->
      <g style="fill: #262626" transform="translate(742.805313 156.618965) scale(0.11 -0.11)">
       <use xlink:href="#ArialMT-34"/>
      </g>
     </g>
    </g>
    <g id="ytick_22">
     <g id="line2d_42">
      <path d="M 755.922344 120.494291 
L 1066.342344 120.494291 
" clip-path="url(#p685a3a5391)" style="fill: none; stroke: #cccccc; stroke-width: 0.8; stroke-linecap: round"/>
     </g>
     <g id="text_55">
      <!-- 6 -->
      <g style="fill: #262626" transform="translate(742.805313 124.431088) scale(0.11 -0.11)">
       <use xlink:href="#ArialMT-36"/>
      </g>
     </g>
    </g>
    <g id="ytick_23">
     <g id="line2d_43">
      <path d="M 755.922344 88.306414 
L 1066.342344 88.306414 
" clip-path="url(#p685a3a5391)" style="fill: none; stroke: #cccccc; stroke-width: 0.8; stroke-linecap: round"/>
     </g>
     <g id="text_56">
      <!-- 8 -->
      <g style="fill: #262626" transform="translate(742.805313 92.24321) scale(0.11 -0.11)">
       <use xlink:href="#ArialMT-38"/>
      </g>
     </g>
    </g>
    <g id="text_57">
     <!-- Component 2 -->
     <g style="fill: #262626" transform="translate(729.995625 248.260625) rotate(-90) scale(0.12 -0.12)">
      <use xlink:href="#ArialMT-43"/>
      <use xlink:href="#ArialMT-6f" transform="translate(72.216797 0)"/>
      <use xlink:href="#ArialMT-6d" transform="translate(127.832031 0)"/>
      <use xlink:href="#ArialMT-70" transform="translate(211.132812 0)"/>
      <use xlink:href="#ArialMT-6f" transform="translate(266.748047 0)"/>
      <use xlink:href="#ArialMT-6e" transform="translate(322.363281 0)"/>
      <use xlink:href="#ArialMT-65" transform="translate(377.978516 0)"/>
      <use xlink:href="#ArialMT-6e" transform="translate(433.59375 0)"/>
      <use xlink:href="#ArialMT-74" transform="translate(489.208984 0)"/>
      <use xlink:href="#ArialMT-20" transform="translate(516.992188 0)"/>
      <use xlink:href="#ArialMT-32" transform="translate(544.775391 0)"/>
     </g>
    </g>
   </g>
   <g id="patch_11">
    <path d="M 755.922344 337.24 
L 755.922344 87.24 
" style="fill: none; stroke: #cccccc; stroke-width: 0.8; stroke-linejoin: miter; stroke-linecap: square"/>
   </g>
   <g id="patch_12">
    <path d="M 755.922344 337.24 
L 1066.342344 337.24 
" style="fill: none; stroke: #cccccc; stroke-width: 0.8; stroke-linejoin: miter; stroke-linecap: square"/>
   </g>
   <g id="PathCollection_13">
    <g clip-path="url(#p685a3a5391)">
     <use xlink:href="#m1b29460af2" x="1049.20158" y="227.827321" style="fill: #ef3f37; stroke: #ffffff; stroke-width: 1.5"/>
     <use xlink:href="#m1b29460af2" x="1051.182681" y="222.051824" style="fill: #ef3f37; stroke: #ffffff; stroke-width: 1.5"/>
     <use xlink:href="#m1b29460af2" x="1052.232344" y="227.334958" style="fill: #ef3f37; stroke: #ffffff; stroke-width: 1.5"/>
    </g>
   </g>
   <g id="PathCollection_14">
    <g clip-path="url(#p685a3a5391)">
     <use xlink:href="#m8abeef52cb" x="778.195091" y="325.876364" style="fill: #fbaf41; stroke: #ffffff; stroke-width: 1.5"/>
     <use xlink:href="#m8abeef52cb" x="781.035833" y="321.888361" style="fill: #fbaf41; stroke: #ffffff; stroke-width: 1.5"/>
     <use xlink:href="#m8abeef52cb" x="770.032344" y="321.373317" style="fill: #fbaf41; stroke: #ffffff; stroke-width: 1.5"/>
    </g>
   </g>
   <g id="PathCollection_15">
    <g clip-path="url(#p685a3a5391)">
     <use xlink:href="#mb9f2394bfb" x="798.228535" y="104.235976" style="fill: #262161; stroke: #ffffff; stroke-width: 1.5"/>
     <use xlink:href="#mb9f2394bfb" x="802.151162" y="104.329551" style="fill: #262161; stroke: #ffffff; stroke-width: 1.5"/>
     <use xlink:href="#mb9f2394bfb" x="791.564765" y="98.603636" style="fill: #262161; stroke: #ffffff; stroke-width: 1.5"/>
    </g>
   </g>
   <g id="text_58">
    <!-- Peptidomics -->
    <g style="fill: #4caf50" transform="translate(872.486797 81.24) scale(0.13 -0.13)">
     <defs>
      <path id="Arial-BoldMT-50" d="M 466 0 
L 466 4581 
L 1950 4581 
Q 2794 4581 3050 4513 
Q 3444 4409 3709 4064 
Q 3975 3719 3975 3172 
Q 3975 2750 3822 2462 
Q 3669 2175 3433 2011 
Q 3197 1847 2953 1794 
Q 2622 1728 1994 1728 
L 1391 1728 
L 1391 0 
L 466 0 
z
M 1391 3806 
L 1391 2506 
L 1897 2506 
Q 2444 2506 2628 2578 
Q 2813 2650 2917 2803 
Q 3022 2956 3022 3159 
Q 3022 3409 2875 3571 
Q 2728 3734 2503 3775 
Q 2338 3806 1838 3806 
L 1391 3806 
z
" transform="scale(0.015625)"/>
     </defs>
     <use xlink:href="#Arial-BoldMT-50"/>
     <use xlink:href="#Arial-BoldMT-65" transform="translate(66.699219 0)"/>
     <use xlink:href="#Arial-BoldMT-70" transform="translate(122.314453 0)"/>
     <use xlink:href="#Arial-BoldMT-74" transform="translate(183.398438 0)"/>
     <use xlink:href="#Arial-BoldMT-69" transform="translate(216.699219 0)"/>
     <use xlink:href="#Arial-BoldMT-64" transform="translate(244.482422 0)"/>
     <use xlink:href="#Arial-BoldMT-6f" transform="translate(305.566406 0)"/>
     <use xlink:href="#Arial-BoldMT-6d" transform="translate(366.650391 0)"/>
     <use xlink:href="#Arial-BoldMT-69" transform="translate(455.566406 0)"/>
     <use xlink:href="#Arial-BoldMT-63" transform="translate(483.349609 0)"/>
     <use xlink:href="#Arial-BoldMT-73" transform="translate(538.964844 0)"/>
    </g>
   </g>
   <g id="legend_3">
    <g id="patch_13">
     <path d="M 983.568594 127.87 
L 1060.742344 127.87 
Q 1062.342344 127.87 1062.342344 126.27 
L 1062.342344 92.84 
Q 1062.342344 91.24 1060.742344 91.24 
L 983.568594 91.24 
Q 981.968594 91.24 981.968594 92.84 
L 981.968594 126.27 
Q 981.968594 127.87 983.568594 127.87 
z
" style="fill: #ffffff; opacity: 0.8; stroke: #cccccc; stroke-linejoin: miter"/>
    </g>
    <g id="PathCollection_16">
     <g>
      <use xlink:href="#m1b29460af2" x="993.168594" y="98.06625" style="fill: #ef3f37; stroke: #ffffff; stroke-width: 1.5"/>
     </g>
    </g>
    <g id="text_59">
     <!-- High-grade -->
     <g style="fill: #262626" transform="translate(1007.568594 100.16625) scale(0.08 -0.08)">
      <use xlink:href="#ArialMT-48"/>
      <use xlink:href="#ArialMT-69" transform="translate(72.216797 0)"/>
      <use xlink:href="#ArialMT-67" transform="translate(94.433594 0)"/>
      <use xlink:href="#ArialMT-68" transform="translate(150.048828 0)"/>
      <use xlink:href="#ArialMT-2d" transform="translate(205.664062 0)"/>
      <use xlink:href="#ArialMT-67" transform="translate(238.964844 0)"/>
      <use xlink:href="#ArialMT-72" transform="translate(294.580078 0)"/>
      <use xlink:href="#ArialMT-61" transform="translate(327.880859 0)"/>
      <use xlink:href="#ArialMT-64" transform="translate(383.496094 0)"/>
      <use xlink:href="#ArialMT-65" transform="translate(439.111328 0)"/>
     </g>
    </g>
    <g id="PathCollection_17">
     <g>
      <use xlink:href="#m8abeef52cb" x="993.168594" y="109.47625" style="fill: #fbaf41; stroke: #ffffff; stroke-width: 1.5"/>
     </g>
    </g>
    <g id="text_60">
     <!-- Medium-grade -->
     <g style="fill: #262626" transform="translate(1007.568594 111.57625) scale(0.08 -0.08)">
      <use xlink:href="#ArialMT-4d"/>
      <use xlink:href="#ArialMT-65" transform="translate(83.300781 0)"/>
      <use xlink:href="#ArialMT-64" transform="translate(138.916016 0)"/>
      <use xlink:href="#ArialMT-69" transform="translate(194.53125 0)"/>
      <use xlink:href="#ArialMT-75" transform="translate(216.748047 0)"/>
      <use xlink:href="#ArialMT-6d" transform="translate(272.363281 0)"/>
      <use xlink:href="#ArialMT-2d" transform="translate(355.664062 0)"/>
      <use xlink:href="#ArialMT-67" transform="translate(388.964844 0)"/>
      <use xlink:href="#ArialMT-72" transform="translate(444.580078 0)"/>
      <use xlink:href="#ArialMT-61" transform="translate(477.880859 0)"/>
      <use xlink:href="#ArialMT-64" transform="translate(533.496094 0)"/>
      <use xlink:href="#ArialMT-65" transform="translate(589.111328 0)"/>
     </g>
    </g>
    <g id="PathCollection_18">
     <g>
      <use xlink:href="#mb9f2394bfb" x="993.168594" y="120.88625" style="fill: #262161; stroke: #ffffff; stroke-width: 1.5"/>
     </g>
    </g>
    <g id="text_61">
     <!-- Low-grade -->
     <g style="fill: #262626" transform="translate(1007.568594 122.98625) scale(0.08 -0.08)">
      <use xlink:href="#ArialMT-4c"/>
      <use xlink:href="#ArialMT-6f" transform="translate(55.615234 0)"/>
      <use xlink:href="#ArialMT-77" transform="translate(111.230469 0)"/>
      <use xlink:href="#ArialMT-2d" transform="translate(183.447266 0)"/>
      <use xlink:href="#ArialMT-67" transform="translate(216.748047 0)"/>
      <use xlink:href="#ArialMT-72" transform="translate(272.363281 0)"/>
      <use xlink:href="#ArialMT-61" transform="translate(305.664062 0)"/>
      <use xlink:href="#ArialMT-64" transform="translate(361.279297 0)"/>
      <use xlink:href="#ArialMT-65" transform="translate(416.894531 0)"/>
     </g>
    </g>
   </g>
  </g>
  <g id="axes_4">
   <g id="patch_14">
    <path d="M 1112.952344 337.24 
L 1423.372344 337.24 
L 1423.372344 87.24 
L 1112.952344 87.24 
z
" style="fill: #ffffff"/>
   </g>
   <g id="matplotlib.axis_7">
    <g id="xtick_21">
     <g id="line2d_44">
      <path d="M 1138.60684 337.24 
L 1138.60684 87.24 
" clip-path="url(#pb7a6a3e183)" style="fill: none; stroke: #cccccc; stroke-width: 0.8; stroke-linecap: round"/>
     </g>
     <g id="text_62">
      <!-- −4 -->
      <g style="fill: #262626" transform="translate(1132.335981 352.113594) scale(0.11 -0.11)">
       <use xlink:href="#ArialMT-2212"/>
       <use xlink:href="#ArialMT-34" transform="translate(58.398438 0)"/>
      </g>
     </g>
    </g>
    <g id="xtick_22">
     <g id="line2d_45">
      <path d="M 1183.671206 337.24 
L 1183.671206 87.24 
" clip-path="url(#pb7a6a3e183)" style="fill: none; stroke: #cccccc; stroke-width: 0.8; stroke-linecap: round"/>
     </g>
     <g id="text_63">
      <!-- −2 -->
      <g style="fill: #262626" transform="translate(1177.400347 352.113594) scale(0.11 -0.11)">
       <use xlink:href="#ArialMT-2212"/>
       <use xlink:href="#ArialMT-32" transform="translate(58.398438 0)"/>
      </g>
     </g>
    </g>
    <g id="xtick_23">
     <g id="line2d_46">
      <path d="M 1228.735573 337.24 
L 1228.735573 87.24 
" clip-path="url(#pb7a6a3e183)" style="fill: none; stroke: #cccccc; stroke-width: 0.8; stroke-linecap: round"/>
     </g>
     <g id="text_64">
      <!-- 0 -->
      <g style="fill: #262626" transform="translate(1225.677057 352.113594) scale(0.11 -0.11)">
       <use xlink:href="#ArialMT-30"/>
      </g>
     </g>
    </g>
    <g id="xtick_24">
     <g id="line2d_47">
      <path d="M 1273.799939 337.24 
L 1273.799939 87.24 
" clip-path="url(#pb7a6a3e183)" style="fill: none; stroke: #cccccc; stroke-width: 0.8; stroke-linecap: round"/>
     </g>
     <g id="text_65">
      <!-- 2 -->
      <g style="fill: #262626" transform="translate(1270.741423 352.113594) scale(0.11 -0.11)">
       <use xlink:href="#ArialMT-32"/>
      </g>
     </g>
    </g>
    <g id="xtick_25">
     <g id="line2d_48">
      <path d="M 1318.864305 337.24 
L 1318.864305 87.24 
" clip-path="url(#pb7a6a3e183)" style="fill: none; stroke: #cccccc; stroke-width: 0.8; stroke-linecap: round"/>
     </g>
     <g id="text_66">
      <!-- 4 -->
      <g style="fill: #262626" transform="translate(1315.805789 352.113594) scale(0.11 -0.11)">
       <use xlink:href="#ArialMT-34"/>
      </g>
     </g>
    </g>
    <g id="xtick_26">
     <g id="line2d_49">
      <path d="M 1363.928671 337.24 
L 1363.928671 87.24 
" clip-path="url(#pb7a6a3e183)" style="fill: none; stroke: #cccccc; stroke-width: 0.8; stroke-linecap: round"/>
     </g>
     <g id="text_67">
      <!-- 6 -->
      <g style="fill: #262626" transform="translate(1360.870156 352.113594) scale(0.11 -0.11)">
       <use xlink:href="#ArialMT-36"/>
      </g>
     </g>
    </g>
    <g id="xtick_27">
     <g id="line2d_50">
      <path d="M 1408.993038 337.24 
L 1408.993038 87.24 
" clip-path="url(#pb7a6a3e183)" style="fill: none; stroke: #cccccc; stroke-width: 0.8; stroke-linecap: round"/>
     </g>
     <g id="text_68">
      <!-- 8 -->
      <g style="fill: #262626" transform="translate(1405.934522 352.113594) scale(0.11 -0.11)">
       <use xlink:href="#ArialMT-38"/>
      </g>
     </g>
    </g>
    <g id="text_69">
     <!-- Component 1 -->
     <g style="fill: #262626" transform="translate(1232.141719 367.035469) scale(0.12 -0.12)">
      <use xlink:href="#ArialMT-43"/>
      <use xlink:href="#ArialMT-6f" transform="translate(72.216797 0)"/>
      <use xlink:href="#ArialMT-6d" transform="translate(127.832031 0)"/>
      <use xlink:href="#ArialMT-70" transform="translate(211.132812 0)"/>
      <use xlink:href="#ArialMT-6f" transform="translate(266.748047 0)"/>
      <use xlink:href="#ArialMT-6e" transform="translate(322.363281 0)"/>
      <use xlink:href="#ArialMT-65" transform="translate(377.978516 0)"/>
      <use xlink:href="#ArialMT-6e" transform="translate(433.59375 0)"/>
      <use xlink:href="#ArialMT-74" transform="translate(489.208984 0)"/>
      <use xlink:href="#ArialMT-20" transform="translate(516.992188 0)"/>
      <use xlink:href="#ArialMT-31" transform="translate(544.775391 0)"/>
     </g>
    </g>
   </g>
   <g id="matplotlib.axis_8">
    <g id="ytick_24">
     <g id="line2d_51">
      <path d="M 1112.952344 332.457099 
L 1423.372344 332.457099 
" clip-path="url(#pb7a6a3e183)" style="fill: none; stroke: #cccccc; stroke-width: 0.8; stroke-linecap: round"/>
     </g>
     <g id="text_70">
      <!-- −6 -->
      <g style="fill: #262626" transform="translate(1093.410625 336.393896) scale(0.11 -0.11)">
       <use xlink:href="#ArialMT-2212"/>
       <use xlink:href="#ArialMT-36" transform="translate(58.398438 0)"/>
      </g>
     </g>
    </g>
    <g id="ytick_25">
     <g id="line2d_52">
      <path d="M 1112.952344 293.520615 
L 1423.372344 293.520615 
" clip-path="url(#pb7a6a3e183)" style="fill: none; stroke: #cccccc; stroke-width: 0.8; stroke-linecap: round"/>
     </g>
     <g id="text_71">
      <!-- −4 -->
      <g style="fill: #262626" transform="translate(1093.410625 297.457412) scale(0.11 -0.11)">
       <use xlink:href="#ArialMT-2212"/>
       <use xlink:href="#ArialMT-34" transform="translate(58.398438 0)"/>
      </g>
     </g>
    </g>
    <g id="ytick_26">
     <g id="line2d_53">
      <path d="M 1112.952344 254.584132 
L 1423.372344 254.584132 
" clip-path="url(#pb7a6a3e183)" style="fill: none; stroke: #cccccc; stroke-width: 0.8; stroke-linecap: round"/>
     </g>
     <g id="text_72">
      <!-- −2 -->
      <g style="fill: #262626" transform="translate(1093.410625 258.520929) scale(0.11 -0.11)">
       <use xlink:href="#ArialMT-2212"/>
       <use xlink:href="#ArialMT-32" transform="translate(58.398438 0)"/>
      </g>
     </g>
    </g>
    <g id="ytick_27">
     <g id="line2d_54">
      <path d="M 1112.952344 215.647648 
L 1423.372344 215.647648 
" clip-path="url(#pb7a6a3e183)" style="fill: none; stroke: #cccccc; stroke-width: 0.8; stroke-linecap: round"/>
     </g>
     <g id="text_73">
      <!-- 0 -->
      <g style="fill: #262626" transform="translate(1099.835312 219.584445) scale(0.11 -0.11)">
       <use xlink:href="#ArialMT-30"/>
      </g>
     </g>
    </g>
    <g id="ytick_28">
     <g id="line2d_55">
      <path d="M 1112.952344 176.711164 
L 1423.372344 176.711164 
" clip-path="url(#pb7a6a3e183)" style="fill: none; stroke: #cccccc; stroke-width: 0.8; stroke-linecap: round"/>
     </g>
     <g id="text_74">
      <!-- 2 -->
      <g style="fill: #262626" transform="translate(1099.835312 180.647961) scale(0.11 -0.11)">
       <use xlink:href="#ArialMT-32"/>
      </g>
     </g>
    </g>
    <g id="ytick_29">
     <g id="line2d_56">
      <path d="M 1112.952344 137.774681 
L 1423.372344 137.774681 
" clip-path="url(#pb7a6a3e183)" style="fill: none; stroke: #cccccc; stroke-width: 0.8; stroke-linecap: round"/>
     </g>
     <g id="text_75">
      <!-- 4 -->
      <g style="fill: #262626" transform="translate(1099.835312 141.711478) scale(0.11 -0.11)">
       <use xlink:href="#ArialMT-34"/>
      </g>
     </g>
    </g>
    <g id="ytick_30">
     <g id="line2d_57">
      <path d="M 1112.952344 98.838197 
L 1423.372344 98.838197 
" clip-path="url(#pb7a6a3e183)" style="fill: none; stroke: #cccccc; stroke-width: 0.8; stroke-linecap: round"/>
     </g>
     <g id="text_76">
      <!-- 6 -->
      <g style="fill: #262626" transform="translate(1099.835312 102.774994) scale(0.11 -0.11)">
       <use xlink:href="#ArialMT-36"/>
      </g>
     </g>
    </g>
    <g id="text_77">
     <!-- Component 2 -->
     <g style="fill: #262626" transform="translate(1087.025625 248.260625) rotate(-90) scale(0.12 -0.12)">
      <use xlink:href="#ArialMT-43"/>
      <use xlink:href="#ArialMT-6f" transform="translate(72.216797 0)"/>
      <use xlink:href="#ArialMT-6d" transform="translate(127.832031 0)"/>
      <use xlink:href="#ArialMT-70" transform="translate(211.132812 0)"/>
      <use xlink:href="#ArialMT-6f" transform="translate(266.748047 0)"/>
      <use xlink:href="#ArialMT-6e" transform="translate(322.363281 0)"/>
      <use xlink:href="#ArialMT-65" transform="translate(377.978516 0)"/>
      <use xlink:href="#ArialMT-6e" transform="translate(433.59375 0)"/>
      <use xlink:href="#ArialMT-74" transform="translate(489.208984 0)"/>
      <use xlink:href="#ArialMT-20" transform="translate(516.992188 0)"/>
      <use xlink:href="#ArialMT-32" transform="translate(544.775391 0)"/>
     </g>
    </g>
   </g>
   <g id="patch_15">
    <path d="M 1112.952344 337.24 
L 1112.952344 87.24 
" style="fill: none; stroke: #cccccc; stroke-width: 0.8; stroke-linejoin: miter; stroke-linecap: square"/>
   </g>
   <g id="patch_16">
    <path d="M 1112.952344 337.24 
L 1423.372344 337.24 
" style="fill: none; stroke: #cccccc; stroke-width: 0.8; stroke-linejoin: miter; stroke-linecap: square"/>
   </g>
   <g id="PathCollection_19">
    <g clip-path="url(#pb7a6a3e183)">
     <use xlink:href="#m1b29460af2" x="1409.262344" y="222.324071" style="fill: #ef3f37; stroke: #ffffff; stroke-width: 1.5"/>
     <use xlink:href="#m1b29460af2" x="1404.312416" y="223.234848" style="fill: #ef3f37; stroke: #ffffff; stroke-width: 1.5"/>
     <use xlink:href="#m1b29460af2" x="1408.023953" y="226.115342" style="fill: #ef3f37; stroke: #ffffff; stroke-width: 1.5"/>
    </g>
   </g>
   <g id="PathCollection_20">
    <g clip-path="url(#pb7a6a3e183)">
     <use xlink:href="#m8abeef52cb" x="1131.161445" y="325.876364" style="fill: #fbaf41; stroke: #ffffff; stroke-width: 1.5"/>
     <use xlink:href="#m8abeef52cb" x="1129.060654" y="314.76847" style="fill: #fbaf41; stroke: #ffffff; stroke-width: 1.5"/>
     <use xlink:href="#m8abeef52cb" x="1127.062344" y="314.582062" style="fill: #fbaf41; stroke: #ffffff; stroke-width: 1.5"/>
    </g>
   </g>
   <g id="PathCollection_21">
    <g clip-path="url(#pb7a6a3e183)">
     <use xlink:href="#mb9f2394bfb" x="1151.901964" y="115.55042" style="fill: #262161; stroke: #ffffff; stroke-width: 1.5"/>
     <use xlink:href="#mb9f2394bfb" x="1150.39617" y="98.603636" style="fill: #262161; stroke: #ffffff; stroke-width: 1.5"/>
     <use xlink:href="#mb9f2394bfb" x="1147.438863" y="99.77362" style="fill: #262161; stroke: #ffffff; stroke-width: 1.5"/>
    </g>
   </g>
   <g id="text_78">
    <!-- Proteomics -->
    <g style="fill: #2196f3" transform="translate(1232.762734 81.24) scale(0.13 -0.13)">
     <defs>
      <path id="Arial-BoldMT-72" d="M 1300 0 
L 422 0 
L 422 3319 
L 1238 3319 
L 1238 2847 
Q 1447 3181 1614 3287 
Q 1781 3394 1994 3394 
Q 2294 3394 2572 3228 
L 2300 2463 
Q 2078 2606 1888 2606 
Q 1703 2606 1575 2504 
Q 1447 2403 1373 2137 
Q 1300 1872 1300 1025 
L 1300 0 
z
" transform="scale(0.015625)"/>
     </defs>
     <use xlink:href="#Arial-BoldMT-50"/>
     <use xlink:href="#Arial-BoldMT-72" transform="translate(66.699219 0)"/>
     <use xlink:href="#Arial-BoldMT-6f" transform="translate(105.615234 0)"/>
     <use xlink:href="#Arial-BoldMT-74" transform="translate(166.699219 0)"/>
     <use xlink:href="#Arial-BoldMT-65" transform="translate(200 0)"/>
     <use xlink:href="#Arial-BoldMT-6f" transform="translate(255.615234 0)"/>
     <use xlink:href="#Arial-BoldMT-6d" transform="translate(316.699219 0)"/>
     <use xlink:href="#Arial-BoldMT-69" transform="translate(405.615234 0)"/>
     <use xlink:href="#Arial-BoldMT-63" transform="translate(433.398438 0)"/>
     <use xlink:href="#Arial-BoldMT-73" transform="translate(489.013672 0)"/>
    </g>
   </g>
   <g id="legend_4">
    <g id="patch_17">
     <path d="M 1340.598594 127.87 
L 1417.772344 127.87 
Q 1419.372344 127.87 1419.372344 126.27 
L 1419.372344 92.84 
Q 1419.372344 91.24 1417.772344 91.24 
L 1340.598594 91.24 
Q 1338.998594 91.24 1338.998594 92.84 
L 1338.998594 126.27 
Q 1338.998594 127.87 1340.598594 127.87 
z
" style="fill: #ffffff; opacity: 0.8; stroke: #cccccc; stroke-linejoin: miter"/>
    </g>
    <g id="PathCollection_22">
     <g>
      <use xlink:href="#m1b29460af2" x="1350.198594" y="98.06625" style="fill: #ef3f37; stroke: #ffffff; stroke-width: 1.5"/>
     </g>
    </g>
    <g id="text_79">
     <!-- High-grade -->
     <g style="fill: #262626" transform="translate(1364.598594 100.16625) scale(0.08 -0.08)">
      <use xlink:href="#ArialMT-48"/>
      <use xlink:href="#ArialMT-69" transform="translate(72.216797 0)"/>
      <use xlink:href="#ArialMT-67" transform="translate(94.433594 0)"/>
      <use xlink:href="#ArialMT-68" transform="translate(150.048828 0)"/>
      <use xlink:href="#ArialMT-2d" transform="translate(205.664062 0)"/>
      <use xlink:href="#ArialMT-67" transform="translate(238.964844 0)"/>
      <use xlink:href="#ArialMT-72" transform="translate(294.580078 0)"/>
      <use xlink:href="#ArialMT-61" transform="translate(327.880859 0)"/>
      <use xlink:href="#ArialMT-64" transform="translate(383.496094 0)"/>
      <use xlink:href="#ArialMT-65" transform="translate(439.111328 0)"/>
     </g>
    </g>
    <g id="PathCollection_23">
     <g>
      <use xlink:href="#m8abeef52cb" x="1350.198594" y="109.47625" style="fill: #fbaf41; stroke: #ffffff; stroke-width: 1.5"/>
     </g>
    </g>
    <g id="text_80">
     <!-- Medium-grade -->
     <g style="fill: #262626" transform="translate(1364.598594 111.57625) scale(0.08 -0.08)">
      <use xlink:href="#ArialMT-4d"/>
      <use xlink:href="#ArialMT-65" transform="translate(83.300781 0)"/>
      <use xlink:href="#ArialMT-64" transform="translate(138.916016 0)"/>
      <use xlink:href="#ArialMT-69" transform="translate(194.53125 0)"/>
      <use xlink:href="#ArialMT-75" transform="translate(216.748047 0)"/>
      <use xlink:href="#ArialMT-6d" transform="translate(272.363281 0)"/>
      <use xlink:href="#ArialMT-2d" transform="translate(355.664062 0)"/>
      <use xlink:href="#ArialMT-67" transform="translate(388.964844 0)"/>
      <use xlink:href="#ArialMT-72" transform="translate(444.580078 0)"/>
      <use xlink:href="#ArialMT-61" transform="translate(477.880859 0)"/>
      <use xlink:href="#ArialMT-64" transform="translate(533.496094 0)"/>
      <use xlink:href="#ArialMT-65" transform="translate(589.111328 0)"/>
     </g>
    </g>
    <g id="PathCollection_24">
     <g>
      <use xlink:href="#mb9f2394bfb" x="1350.198594" y="120.88625" style="fill: #262161; stroke: #ffffff; stroke-width: 1.5"/>
     </g>
    </g>
    <g id="text_81">
     <!-- Low-grade -->
     <g style="fill: #262626" transform="translate(1364.598594 122.98625) scale(0.08 -0.08)">
      <use xlink:href="#ArialMT-4c"/>
      <use xlink:href="#ArialMT-6f" transform="translate(55.615234 0)"/>
      <use xlink:href="#ArialMT-77" transform="translate(111.230469 0)"/>
      <use xlink:href="#ArialMT-2d" transform="translate(183.447266 0)"/>
      <use xlink:href="#ArialMT-67" transform="translate(216.748047 0)"/>
      <use xlink:href="#ArialMT-72" transform="translate(272.363281 0)"/>
      <use xlink:href="#ArialMT-61" transform="translate(305.664062 0)"/>
      <use xlink:href="#ArialMT-64" transform="translate(361.279297 0)"/>
      <use xlink:href="#ArialMT-65" transform="translate(416.894531 0)"/>
     </g>
    </g>
   </g>
  </g>
  <g id="text_82">
   <!-- Figure 3A — DIABLO Sample Projections per Omics Block -->
   <g style="fill: #262626" transform="translate(535.265313 16.663594) scale(0.13 -0.13)">
    <defs>
     <path id="Arial-BoldMT-46" d="M 472 0 
L 472 4581 
L 3613 4581 
L 3613 3806 
L 1397 3806 
L 1397 2722 
L 3309 2722 
L 3309 1947 
L 1397 1947 
L 1397 0 
L 472 0 
z
" transform="scale(0.015625)"/>
     <path id="Arial-BoldMT-67" d="M 378 -219 
L 1381 -341 
Q 1406 -516 1497 -581 
Q 1622 -675 1891 -675 
Q 2234 -675 2406 -572 
Q 2522 -503 2581 -350 
Q 2622 -241 2622 53 
L 2622 538 
Q 2228 0 1628 0 
Q 959 0 569 566 
Q 263 1013 263 1678 
Q 263 2513 664 2953 
Q 1066 3394 1663 3394 
Q 2278 3394 2678 2853 
L 2678 3319 
L 3500 3319 
L 3500 341 
Q 3500 -247 3403 -537 
Q 3306 -828 3131 -993 
Q 2956 -1159 2664 -1253 
Q 2372 -1347 1925 -1347 
Q 1081 -1347 728 -1058 
Q 375 -769 375 -325 
Q 375 -281 378 -219 
z
M 1163 1728 
Q 1163 1200 1367 954 
Q 1572 709 1872 709 
Q 2194 709 2416 961 
Q 2638 1213 2638 1706 
Q 2638 2222 2425 2472 
Q 2213 2722 1888 2722 
Q 1572 2722 1367 2476 
Q 1163 2231 1163 1728 
z
" transform="scale(0.015625)"/>
     <path id="Arial-BoldMT-75" d="M 2644 0 
L 2644 497 
Q 2463 231 2167 78 
Q 1872 -75 1544 -75 
Q 1209 -75 943 72 
Q 678 219 559 484 
Q 441 750 441 1219 
L 441 3319 
L 1319 3319 
L 1319 1794 
Q 1319 1094 1367 936 
Q 1416 778 1544 686 
Q 1672 594 1869 594 
Q 2094 594 2272 717 
Q 2450 841 2515 1023 
Q 2581 1206 2581 1919 
L 2581 3319 
L 3459 3319 
L 3459 0 
L 2644 0 
z
" transform="scale(0.015625)"/>
     <path id="Arial-BoldMT-20" transform="scale(0.015625)"/>
     <path id="Arial-BoldMT-33" d="M 241 1216 
L 1091 1319 
Q 1131 994 1309 822 
Q 1488 650 1741 650 
Q 2013 650 2198 856 
Q 2384 1063 2384 1413 
Q 2384 1744 2206 1937 
Q 2028 2131 1772 2131 
Q 1603 2131 1369 2066 
L 1466 2781 
Q 1822 2772 2009 2936 
Q 2197 3100 2197 3372 
Q 2197 3603 2059 3740 
Q 1922 3878 1694 3878 
Q 1469 3878 1309 3722 
Q 1150 3566 1116 3266 
L 306 3403 
Q 391 3819 561 4067 
Q 731 4316 1036 4458 
Q 1341 4600 1719 4600 
Q 2366 4600 2756 4188 
Q 3078 3850 3078 3425 
Q 3078 2822 2419 2463 
Q 2813 2378 3048 2084 
Q 3284 1791 3284 1375 
Q 3284 772 2843 347 
Q 2403 -78 1747 -78 
Q 1125 -78 715 280 
Q 306 638 241 1216 
z
" transform="scale(0.015625)"/>
     <path id="Arial-BoldMT-41" d="M 4597 0 
L 3591 0 
L 3191 1041 
L 1359 1041 
L 981 0 
L 0 0 
L 1784 4581 
L 2763 4581 
L 4597 0 
z
M 2894 1813 
L 2263 3513 
L 1644 1813 
L 2894 1813 
z
" transform="scale(0.015625)"/>
     <path id="Arial-BoldMT-2014" d="M 0 1331 
L 0 1988 
L 6400 1988 
L 6400 1331 
L 0 1331 
z
" transform="scale(0.015625)"/>
     <path id="Arial-BoldMT-44" d="M 463 4581 
L 2153 4581 
Q 2725 4581 3025 4494 
Q 3428 4375 3715 4072 
Q 4003 3769 4153 3330 
Q 4303 2891 4303 2247 
Q 4303 1681 4163 1272 
Q 3991 772 3672 463 
Q 3431 228 3022 97 
Q 2716 0 2203 0 
L 463 0 
L 463 4581 
z
M 1388 3806 
L 1388 772 
L 2078 772 
Q 2466 772 2638 816 
Q 2863 872 3011 1006 
Q 3159 1141 3253 1448 
Q 3347 1756 3347 2288 
Q 3347 2819 3253 3103 
Q 3159 3388 2990 3547 
Q 2822 3706 2563 3763 
Q 2369 3806 1803 3806 
L 1388 3806 
z
" transform="scale(0.015625)"/>
     <path id="Arial-BoldMT-49" d="M 438 0 
L 438 4581 
L 1363 4581 
L 1363 0 
L 438 0 
z
" transform="scale(0.015625)"/>
     <path id="Arial-BoldMT-42" d="M 469 4581 
L 2300 4581 
Q 2844 4581 3111 4536 
Q 3378 4491 3589 4347 
Q 3800 4203 3940 3964 
Q 4081 3725 4081 3428 
Q 4081 3106 3907 2837 
Q 3734 2569 3438 2434 
Q 3856 2313 4081 2019 
Q 4306 1725 4306 1328 
Q 4306 1016 4161 720 
Q 4016 425 3764 248 
Q 3513 72 3144 31 
Q 2913 6 2028 0 
L 469 0 
L 469 4581 
z
M 1394 3819 
L 1394 2759 
L 2000 2759 
Q 2541 2759 2672 2775 
Q 2909 2803 3045 2939 
Q 3181 3075 3181 3297 
Q 3181 3509 3064 3642 
Q 2947 3775 2716 3803 
Q 2578 3819 1925 3819 
L 1394 3819 
z
M 1394 1997 
L 1394 772 
L 2250 772 
Q 2750 772 2884 800 
Q 3091 838 3220 983 
Q 3350 1128 3350 1372 
Q 3350 1578 3250 1722 
Q 3150 1866 2961 1931 
Q 2772 1997 2141 1997 
L 1394 1997 
z
" transform="scale(0.015625)"/>
     <path id="Arial-BoldMT-4f" d="M 278 2263 
Q 278 2963 488 3438 
Q 644 3788 914 4066 
Q 1184 4344 1506 4478 
Q 1934 4659 2494 4659 
Q 3506 4659 4114 4031 
Q 4722 3403 4722 2284 
Q 4722 1175 4119 548 
Q 3516 -78 2506 -78 
Q 1484 -78 881 545 
Q 278 1169 278 2263 
z
M 1231 2294 
Q 1231 1516 1590 1114 
Q 1950 713 2503 713 
Q 3056 713 3411 1111 
Q 3766 1509 3766 2306 
Q 3766 3094 3420 3481 
Q 3075 3869 2503 3869 
Q 1931 3869 1581 3476 
Q 1231 3084 1231 2294 
z
" transform="scale(0.015625)"/>
     <path id="Arial-BoldMT-53" d="M 231 1491 
L 1131 1578 
Q 1213 1125 1461 912 
Q 1709 700 2131 700 
Q 2578 700 2804 889 
Q 3031 1078 3031 1331 
Q 3031 1494 2936 1608 
Q 2841 1722 2603 1806 
Q 2441 1863 1863 2006 
Q 1119 2191 819 2459 
Q 397 2838 397 3381 
Q 397 3731 595 4036 
Q 794 4341 1167 4500 
Q 1541 4659 2069 4659 
Q 2931 4659 3367 4281 
Q 3803 3903 3825 3272 
L 2900 3231 
Q 2841 3584 2645 3739 
Q 2450 3894 2059 3894 
Q 1656 3894 1428 3728 
Q 1281 3622 1281 3444 
Q 1281 3281 1419 3166 
Q 1594 3019 2269 2859 
Q 2944 2700 3267 2529 
Q 3591 2359 3773 2064 
Q 3956 1769 3956 1334 
Q 3956 941 3737 597 
Q 3519 253 3119 86 
Q 2719 -81 2122 -81 
Q 1253 -81 787 320 
Q 322 722 231 1491 
z
" transform="scale(0.015625)"/>
     <path id="Arial-BoldMT-6a" d="M 441 3769 
L 441 4581 
L 1319 4581 
L 1319 3769 
L 441 3769 
z
M 1319 3319 
L 1319 103 
Q 1319 -531 1236 -792 
Q 1153 -1053 917 -1200 
Q 681 -1347 316 -1347 
Q 184 -1347 32 -1323 
Q -119 -1300 -294 -1253 
L -141 -503 
Q -78 -516 -23 -523 
Q 31 -531 78 -531 
Q 213 -531 298 -473 
Q 384 -416 412 -334 
Q 441 -253 441 153 
L 441 3319 
L 1319 3319 
z
" transform="scale(0.015625)"/>
     <path id="Arial-BoldMT-6e" d="M 3478 0 
L 2600 0 
L 2600 1694 
Q 2600 2231 2544 2389 
Q 2488 2547 2361 2634 
Q 2234 2722 2056 2722 
Q 1828 2722 1647 2597 
Q 1466 2472 1398 2265 
Q 1331 2059 1331 1503 
L 1331 0 
L 453 0 
L 453 3319 
L 1269 3319 
L 1269 2831 
Q 1703 3394 2363 3394 
Q 2653 3394 2893 3289 
Q 3134 3184 3257 3021 
Q 3381 2859 3429 2653 
Q 3478 2447 3478 2063 
L 3478 0 
z
" transform="scale(0.015625)"/>
     <path id="Arial-BoldMT-6b" d="M 428 0 
L 428 4581 
L 1306 4581 
L 1306 2150 
L 2334 3319 
L 3416 3319 
L 2281 2106 
L 3497 0 
L 2550 0 
L 1716 1491 
L 1306 1063 
L 1306 0 
L 428 0 
z
" transform="scale(0.015625)"/>
    </defs>
    <use xlink:href="#Arial-BoldMT-46"/>
    <use xlink:href="#Arial-BoldMT-69" transform="translate(61.083984 0)"/>
    <use xlink:href="#Arial-BoldMT-67" transform="translate(88.867188 0)"/>
    <use xlink:href="#Arial-BoldMT-75" transform="translate(149.951172 0)"/>
    <use xlink:href="#Arial-BoldMT-72" transform="translate(211.035156 0)"/>
    <use xlink:href="#Arial-BoldMT-65" transform="translate(249.951172 0)"/>
    <use xlink:href="#Arial-BoldMT-20" transform="translate(305.566406 0)"/>
    <use xlink:href="#Arial-BoldMT-33" transform="translate(333.349609 0)"/>
    <use xlink:href="#Arial-BoldMT-41" transform="translate(388.964844 0)"/>
    <use xlink:href="#Arial-BoldMT-20" transform="translate(457.431641 0)"/>
    <use xlink:href="#Arial-BoldMT-2014" transform="translate(485.214844 0)"/>
    <use xlink:href="#Arial-BoldMT-20" transform="translate(585.214844 0)"/>
    <use xlink:href="#Arial-BoldMT-44" transform="translate(612.998047 0)"/>
    <use xlink:href="#Arial-BoldMT-49" transform="translate(685.214844 0)"/>
    <use xlink:href="#Arial-BoldMT-41" transform="translate(712.998047 0)"/>
    <use xlink:href="#Arial-BoldMT-42" transform="translate(785.214844 0)"/>
    <use xlink:href="#Arial-BoldMT-4c" transform="translate(857.431641 0)"/>
    <use xlink:href="#Arial-BoldMT-4f" transform="translate(918.515625 0)"/>
    <use xlink:href="#Arial-BoldMT-20" transform="translate(996.298828 0)"/>
    <use xlink:href="#Arial-BoldMT-53" transform="translate(1024.082031 0)"/>
    <use xlink:href="#Arial-BoldMT-61" transform="translate(1090.78125 0)"/>
    <use xlink:href="#Arial-BoldMT-6d" transform="translate(1146.396484 0)"/>
    <use xlink:href="#Arial-BoldMT-70" transform="translate(1235.3125 0)"/>
    <use xlink:href="#Arial-BoldMT-6c" transform="translate(1296.396484 0)"/>
    <use xlink:href="#Arial-BoldMT-65" transform="translate(1324.179688 0)"/>
    <use xlink:href="#Arial-BoldMT-20" transform="translate(1379.794922 0)"/>
    <use xlink:href="#Arial-BoldMT-50" transform="translate(1407.578125 0)"/>
    <use xlink:href="#Arial-BoldMT-72" transform="translate(1474.277344 0)"/>
    <use xlink:href="#Arial-BoldMT-6f" transform="translate(1513.193359 0)"/>
    <use xlink:href="#Arial-BoldMT-6a" transform="translate(1574.277344 0)"/>
    <use xlink:href="#Arial-BoldMT-65" transform="translate(1602.060547 0)"/>
    <use xlink:href="#Arial-BoldMT-63" transform="translate(1657.675781 0)"/>
    <use xlink:href="#Arial-BoldMT-74" transform="translate(1713.291016 0)"/>
    <use xlink:href="#Arial-BoldMT-69" transform="translate(1746.591797 0)"/>
    <use xlink:href="#Arial-BoldMT-6f" transform="translate(1774.375 0)"/>
    <use xlink:href="#Arial-BoldMT-6e" transform="translate(1835.458984 0)"/>
    <use xlink:href="#Arial-BoldMT-73" transform="translate(1896.542969 0)"/>
    <use xlink:href="#Arial-BoldMT-20" transform="translate(1952.158203 0)"/>
    <use xlink:href="#Arial-BoldMT-70" transform="translate(1979.941406 0)"/>
    <use xlink:href="#Arial-BoldMT-65" transform="translate(2041.025391 0)"/>
    <use xlink:href="#Arial-BoldMT-72" transform="translate(2096.640625 0)"/>
    <use xlink:href="#Arial-BoldMT-20" transform="translate(2135.556641 0)"/>
    <use xlink:href="#Arial-BoldMT-4f" transform="translate(2163.339844 0)"/>
    <use xlink:href="#Arial-BoldMT-6d" transform="translate(2241.123047 0)"/>
    <use xlink:href="#Arial-BoldMT-69" transform="translate(2330.039062 0)"/>
    <use xlink:href="#Arial-BoldMT-63" transform="translate(2357.822266 0)"/>
    <use xlink:href="#Arial-BoldMT-73" transform="translate(2413.4375 0)"/>
    <use xlink:href="#Arial-BoldMT-20" transform="translate(2469.052734 0)"/>
    <use xlink:href="#Arial-BoldMT-42" transform="translate(2496.835938 0)"/>
    <use xlink:href="#Arial-BoldMT-6c" transform="translate(2569.052734 0)"/>
    <use xlink:href="#Arial-BoldMT-6f" transform="translate(2596.835938 0)"/>
    <use xlink:href="#Arial-BoldMT-63" transform="translate(2657.919922 0)"/>
    <use xlink:href="#Arial-BoldMT-6b" transform="translate(2713.535156 0)"/>
   </g>
   <!-- (Supervised Integration for Grade Classification) -->
   <g style="fill: #262626" transform="translate(565.3725 30.756) scale(0.13 -0.13)">
    <defs>
     <path id="Arial-BoldMT-28" d="M 1916 -1347 
L 1313 -1347 
Q 834 -625 584 153 
Q 334 931 334 1659 
Q 334 2563 644 3369 
Q 913 4069 1325 4659 
L 1925 4659 
Q 1497 3713 1336 3048 
Q 1175 2384 1175 1641 
Q 1175 1128 1270 590 
Q 1366 53 1531 -431 
Q 1641 -750 1916 -1347 
z
" transform="scale(0.015625)"/>
     <path id="Arial-BoldMT-76" d="M 1372 0 
L 34 3319 
L 956 3319 
L 1581 1625 
L 1763 1059 
Q 1834 1275 1853 1344 
Q 1897 1484 1947 1625 
L 2578 3319 
L 3481 3319 
L 2163 0 
L 1372 0 
z
" transform="scale(0.015625)"/>
     <path id="Arial-BoldMT-66" d="M 75 3319 
L 563 3319 
L 563 3569 
Q 563 3988 652 4194 
Q 741 4400 980 4529 
Q 1219 4659 1584 4659 
Q 1959 4659 2319 4547 
L 2200 3934 
Q 1991 3984 1797 3984 
Q 1606 3984 1523 3895 
Q 1441 3806 1441 3553 
L 1441 3319 
L 2097 3319 
L 2097 2628 
L 1441 2628 
L 1441 0 
L 563 0 
L 563 2628 
L 75 2628 
L 75 3319 
z
" transform="scale(0.015625)"/>
     <path id="Arial-BoldMT-47" d="M 2597 1684 
L 2597 2456 
L 4591 2456 
L 4591 631 
Q 4300 350 3748 136 
Q 3197 -78 2631 -78 
Q 1913 -78 1378 223 
Q 844 525 575 1086 
Q 306 1647 306 2306 
Q 306 3022 606 3578 
Q 906 4134 1484 4431 
Q 1925 4659 2581 4659 
Q 3434 4659 3914 4301 
Q 4394 3944 4531 3313 
L 3613 3141 
Q 3516 3478 3248 3673 
Q 2981 3869 2581 3869 
Q 1975 3869 1617 3484 
Q 1259 3100 1259 2344 
Q 1259 1528 1621 1120 
Q 1984 713 2572 713 
Q 2863 713 3155 827 
Q 3447 941 3656 1103 
L 3656 1684 
L 2597 1684 
z
" transform="scale(0.015625)"/>
     <path id="Arial-BoldMT-43" d="M 3397 1684 
L 4294 1400 
Q 4088 650 3608 286 
Q 3128 -78 2391 -78 
Q 1478 -78 890 545 
Q 303 1169 303 2250 
Q 303 3394 893 4026 
Q 1484 4659 2447 4659 
Q 3288 4659 3813 4163 
Q 4125 3869 4281 3319 
L 3366 3100 
Q 3284 3456 3026 3662 
Q 2769 3869 2400 3869 
Q 1891 3869 1573 3503 
Q 1256 3138 1256 2319 
Q 1256 1450 1568 1081 
Q 1881 713 2381 713 
Q 2750 713 3015 947 
Q 3281 1181 3397 1684 
z
" transform="scale(0.015625)"/>
     <path id="Arial-BoldMT-29" d="M 216 -1347 
Q 475 -791 581 -494 
Q 688 -197 778 190 
Q 869 578 912 926 
Q 956 1275 956 1641 
Q 956 2384 797 3048 
Q 638 3713 209 4659 
L 806 4659 
Q 1278 3988 1539 3234 
Q 1800 2481 1800 1706 
Q 1800 1053 1594 306 
Q 1359 -531 822 -1347 
L 216 -1347 
z
" transform="scale(0.015625)"/>
    </defs>
    <use xlink:href="#Arial-BoldMT-28"/>
    <use xlink:href="#Arial-BoldMT-53" transform="translate(33.300781 0)"/>
    <use xlink:href="#Arial-BoldMT-75" transform="translate(100 0)"/>
    <use xlink:href="#Arial-BoldMT-70" transform="translate(161.083984 0)"/>
    <use xlink:href="#Arial-BoldMT-65" transform="translate(222.167969 0)"/>
    <use xlink:href="#Arial-BoldMT-72" transform="translate(277.783203 0)"/>
    <use xlink:href="#Arial-BoldMT-76" transform="translate(316.699219 0)"/>
    <use xlink:href="#Arial-BoldMT-69" transform="translate(372.314453 0)"/>
    <use xlink:href="#Arial-BoldMT-73" transform="translate(400.097656 0)"/>
    <use xlink:href="#Arial-BoldMT-65" transform="translate(455.712891 0)"/>
    <use xlink:href="#Arial-BoldMT-64" transform="translate(511.328125 0)"/>
    <use xlink:href="#Arial-BoldMT-20" transform="translate(572.412109 0)"/>
    <use xlink:href="#Arial-BoldMT-49" transform="translate(600.195312 0)"/>
    <use xlink:href="#Arial-BoldMT-6e" transform="translate(627.978516 0)"/>
    <use xlink:href="#Arial-BoldMT-74" transform="translate(689.0625 0)"/>
    <use xlink:href="#Arial-BoldMT-65" transform="translate(722.363281 0)"/>
    <use xlink:href="#Arial-BoldMT-67" transform="translate(777.978516 0)"/>
    <use xlink:href="#Arial-BoldMT-72" transform="translate(839.0625 0)"/>
    <use xlink:href="#Arial-BoldMT-61" transform="translate(877.978516 0)"/>
    <use xlink:href="#Arial-BoldMT-74" transform="translate(933.59375 0)"/>
    <use xlink:href="#Arial-BoldMT-69" transform="translate(966.894531 0)"/>
    <use xlink:href="#Arial-BoldMT-6f" transform="translate(994.677734 0)"/>
    <use xlink:href="#Arial-BoldMT-6e" transform="translate(1055.761719 0)"/>
    <use xlink:href="#Arial-BoldMT-20" transform="translate(1116.845703 0)"/>
    <use xlink:href="#Arial-BoldMT-66" transform="translate(1144.628906 0)"/>
    <use xlink:href="#Arial-BoldMT-6f" transform="translate(1177.929688 0)"/>
    <use xlink:href="#Arial-BoldMT-72" transform="translate(1239.013672 0)"/>
    <use xlink:href="#Arial-BoldMT-20" transform="translate(1277.929688 0)"/>
    <use xlink:href="#Arial-BoldMT-47" transform="translate(1305.712891 0)"/>
    <use xlink:href="#Arial-BoldMT-72" transform="translate(1383.496094 0)"/>
    <use xlink:href="#Arial-BoldMT-61" transform="translate(1422.412109 0)"/>
    <use xlink:href="#Arial-BoldMT-64" transform="translate(1478.027344 0)"/>
    <use xlink:href="#Arial-BoldMT-65" transform="translate(1539.111328 0)"/>
    <use xlink:href="#Arial-BoldMT-20" transform="translate(1594.726562 0)"/>
    <use xlink:href="#Arial-BoldMT-43" transform="translate(1622.509766 0)"/>
    <use xlink:href="#Arial-BoldMT-6c" transform="translate(1694.726562 0)"/>
    <use xlink:href="#Arial-BoldMT-61" transform="translate(1722.509766 0)"/>
    <use xlink:href="#Arial-BoldMT-73" transform="translate(1778.125 0)"/>
    <use xlink:href="#Arial-BoldMT-73" transform="translate(1833.740234 0)"/>
    <use xlink:href="#Arial-BoldMT-69" transform="translate(1889.355469 0)"/>
    <use xlink:href="#Arial-BoldMT-66" transform="translate(1917.138672 0)"/>
    <use xlink:href="#Arial-BoldMT-69" transform="translate(1950.439453 0)"/>
    <use xlink:href="#Arial-BoldMT-63" transform="translate(1978.222656 0)"/>
    <use xlink:href="#Arial-BoldMT-61" transform="translate(2033.837891 0)"/>
    <use xlink:href="#Arial-BoldMT-74" transform="translate(2089.453125 0)"/>
    <use xlink:href="#Arial-BoldMT-69" transform="translate(2122.753906 0)"/>
    <use xlink:href="#Arial-BoldMT-6f" transform="translate(2150.537109 0)"/>
    <use xlink:href="#Arial-BoldMT-6e" transform="translate(2211.621094 0)"/>
    <use xlink:href="#Arial-BoldMT-29" transform="translate(2272.705078 0)"/>
   </g>
  </g>
 </g>
 <defs>
  <clipPath id="p03be0180fb">
   <rect x="41.862344" y="87.24" width="310.42" height="250"/>
  </clipPath>
  <clipPath id="pe8bbc9eab9">
   <rect x="398.892344" y="87.24" width="310.42" height="250"/>
  </clipPath>
  <clipPath id="p685a3a5391">
   <rect x="755.922344" y="87.24" width="310.42" height="250"/>
  </clipPath>
  <clipPath id="pb7a6a3e183">
   <rect x="1112.952344" y="87.24" width="310.42" height="250"/>
  </clipPath>
 </defs>
</svg>
