<?xml version="1.0" encoding="utf-8" standalone="no"?>
<!DOCTYPE svg PUBLIC "-//W3C//DTD SVG 1.1//EN"
  "http://www.w3.org/Graphics/SVG/1.1/DTD/svg11.dtd">
<svg xmlns:xlink="http://www.w3.org/1999/xlink" width="854.64pt" height="566.448pt" viewBox="0 0 854.64 566.448" xmlns="http://www.w3.org/2000/svg" version="1.1">
 <metadata>
  <rdf:RDF xmlns:dc="http://purl.org/dc/elements/1.1/" xmlns:cc="http://creativecommons.org/ns#" xmlns:rdf="http://www.w3.org/1999/02/22-rdf-syntax-ns#">
   <cc:Work>
    <dc:type rdf:resource="http://purl.org/dc/dcmitype/StillImage"/>
    <dc:date>2026-04-26T14:35:48.884781</dc:date>
    <dc:format>image/svg+xml</dc:format>
    <dc:creator>
     <cc:Agent>
      <dc:title>Matplotlib v3.10.8, https://matplotlib.org/</dc:title>
     </cc:Agent>
    </dc:creator>
   </cc:Work>
  </rdf:RDF>
 </metadata>
 <defs>
  <style type="text/css">*{stroke-linejoin: round; stroke-linecap: butt}</style>
 </defs>
 <g id="figure_1">
  <g id="patch_1">
   <path d="M 0 566.448 
L 854.64 566.448 
L 854.64 0 
L 0 0 
z
" style="fill: #ffffff"/>
  </g>
  <g id="axes_1">
   <g id="patch_2">
    <path d="M 60.669818 502.0512 
L 175.248 502.0512 
L 175.248 473.4528 
L 60.669818 473.4528 
z
" clip-path="url(#p1ef31ccf65)" style="fill: #2196f3; stroke: #ffffff; stroke-width: 1.5; stroke-linejoin: miter"/>
   </g>
   <g id="patch_3">
    <path d="M 60.669818 374.9472 
L 175.248 374.9472 
L 175.248 346.3488 
L 60.669818 346.3488 
z
" clip-path="url(#p1ef31ccf65)" style="fill: #4caf50; stroke: #ffffff; stroke-width: 1.5; stroke-linejoin: miter"/>
   </g>
   <g id="patch_4">
    <path d="M 60.669818 247.8432 
L 175.248 247.8432 
L 175.248 219.2448 
L 60.669818 219.2448 
z
" clip-path="url(#p1ef31ccf65)" style="fill: #ff9800; stroke: #ffffff; stroke-width: 1.5; stroke-linejoin: miter"/>
   </g>
   <g id="patch_5">
    <path d="M 60.669818 120.7392 
L 175.248 120.7392 
L 175.248 92.1408 
L 60.669818 92.1408 
z
" clip-path="url(#p1ef31ccf65)" style="fill: #9c27b0; stroke: #ffffff; stroke-width: 1.5; stroke-linejoin: miter"/>
   </g>
   <g id="patch_6">
    <path d="M 679.392 502.0512 
L 793.970182 502.0512 
L 793.970182 473.4528 
L 679.392 473.4528 
z
" clip-path="url(#p1ef31ccf65)" style="fill: #8dd3c7; stroke: #ffffff; stroke-width: 1.5; stroke-linejoin: miter"/>
   </g>
   <g id="patch_7">
    <path d="M 679.392 459.6832 
L 793.970182 459.6832 
L 793.970182 431.0848 
L 679.392 431.0848 
z
" clip-path="url(#p1ef31ccf65)" style="fill: #ffffb3; stroke: #ffffff; stroke-width: 1.5; stroke-linejoin: miter"/>
   </g>
   <g id="patch_8">
    <path d="M 679.392 417.3152 
L 793.970182 417.3152 
L 793.970182 388.7168 
L 679.392 388.7168 
z
" clip-path="url(#p1ef31ccf65)" style="fill: #bebada; stroke: #ffffff; stroke-width: 1.5; stroke-linejoin: miter"/>
   </g>
   <g id="patch_9">
    <path d="M 679.392 374.9472 
L 793.970182 374.9472 
L 793.970182 346.3488 
L 679.392 346.3488 
z
" clip-path="url(#p1ef31ccf65)" style="fill: #80b1d3; stroke: #ffffff; stroke-width: 1.5; stroke-linejoin: miter"/>
   </g>
   <g id="patch_10">
    <path d="M 679.392 332.5792 
L 793.970182 332.5792 
L 793.970182 303.9808 
L 679.392 303.9808 
z
" clip-path="url(#p1ef31ccf65)" style="fill: #fdb462; stroke: #ffffff; stroke-width: 1.5; stroke-linejoin: miter"/>
   </g>
   <g id="patch_11">
    <path d="M 679.392 290.2112 
L 793.970182 290.2112 
L 793.970182 261.6128 
L 679.392 261.6128 
z
" clip-path="url(#p1ef31ccf65)" style="fill: #b3de69; stroke: #ffffff; stroke-width: 1.5; stroke-linejoin: miter"/>
   </g>
   <g id="patch_12">
    <path d="M 679.392 247.8432 
L 793.970182 247.8432 
L 793.970182 219.2448 
L 679.392 219.2448 
z
" clip-path="url(#p1ef31ccf65)" style="fill: #d9d9d9; stroke: #ffffff; stroke-width: 1.5; stroke-linejoin: miter"/>
   </g>
   <g id="patch_13">
    <path d="M 679.392 205.4752 
L 793.970182 205.4752 
L 793.970182 176.8768 
L 679.392 176.8768 
z
" clip-path="url(#p1ef31ccf65)" style="fill: #bc80bd; stroke: #ffffff; stroke-width: 1.5; stroke-linejoin: miter"/>
   </g>
   <g id="patch_14">
    <path d="M 679.392 163.1072 
L 793.970182 163.1072 
L 793.970182 134.5088 
L 679.392 134.5088 
z
" clip-path="url(#p1ef31ccf65)" style="fill: #ccebc5; stroke: #ffffff; stroke-width: 1.5; stroke-linejoin: miter"/>
   </g>
   <g id="patch_15">
    <path d="M 679.392 120.7392 
L 793.970182 120.7392 
L 793.970182 92.1408 
L 679.392 92.1408 
z
" clip-path="url(#p1ef31ccf65)" style="fill: #ffed6f; stroke: #ffffff; stroke-width: 1.5; stroke-linejoin: miter"/>
   </g>
   <g id="text_1">
    <!-- Proteomics -->
    <g style="fill: #ffffff" transform="translate(96.174534 489.82575) scale(0.08 -0.08)">
     <defs>
      <path id="Arial-BoldMT-50" d="M 466 0 
L 466 4581 
L 1950 4581 
Q 2794 4581 3050 4513 
Q 3444 4409 3709 4064 
Q 3975 3719 3975 3172 
Q 3975 2750 3822 2462 
Q 3669 2175 3433 2011 
Q 3197 1847 2953 1794 
Q 2622 1728 1994 1728 
L 1391 1728 
L 1391 0 
L 466 0 
z
M 1391 3806 
L 1391 2506 
L 1897 2506 
Q 2444 2506 2628 2578 
Q 2813 2650 2917 2803 
Q 3022 2956 3022 3159 
Q 3022 3409 2875 3571 
Q 2728 3734 2503 3775 
Q 2338 3806 1838 3806 
L 1391 3806 
z
" transform="scale(0.015625)"/>
      <path id="Arial-BoldMT-72" d="M 1300 0 
L 422 0 
L 422 3319 
L 1238 3319 
L 1238 2847 
Q 1447 3181 1614 3287 
Q 1781 3394 1994 3394 
Q 2294 3394 2572 3228 
L 2300 2463 
Q 2078 2606 1888 2606 
Q 1703 2606 1575 2504 
Q 1447 2403 1373 2137 
Q 1300 1872 1300 1025 
L 1300 0 
z
" transform="scale(0.015625)"/>
      <path id="Arial-BoldMT-6f" d="M 256 1706 
Q 256 2144 472 2553 
Q 688 2963 1083 3178 
Q 1478 3394 1966 3394 
Q 2719 3394 3200 2905 
Q 3681 2416 3681 1669 
Q 3681 916 3195 420 
Q 2709 -75 1972 -75 
Q 1516 -75 1102 131 
Q 688 338 472 736 
Q 256 1134 256 1706 
z
M 1156 1659 
Q 1156 1166 1390 903 
Q 1625 641 1969 641 
Q 2313 641 2545 903 
Q 2778 1166 2778 1666 
Q 2778 2153 2545 2415 
Q 2313 2678 1969 2678 
Q 1625 2678 1390 2415 
Q 1156 2153 1156 1659 
z
" transform="scale(0.015625)"/>
      <path id="Arial-BoldMT-74" d="M 1981 3319 
L 1981 2619 
L 1381 2619 
L 1381 1281 
Q 1381 875 1398 808 
Q 1416 741 1477 697 
Q 1538 653 1625 653 
Q 1747 653 1978 738 
L 2053 56 
Q 1747 -75 1359 -75 
Q 1122 -75 931 4 
Q 741 84 652 211 
Q 563 338 528 553 
Q 500 706 500 1172 
L 500 2619 
L 97 2619 
L 97 3319 
L 500 3319 
L 500 3978 
L 1381 4491 
L 1381 3319 
L 1981 3319 
z
" transform="scale(0.015625)"/>
      <path id="Arial-BoldMT-65" d="M 2381 1056 
L 3256 909 
Q 3088 428 2723 176 
Q 2359 -75 1813 -75 
Q 947 -75 531 491 
Q 203 944 203 1634 
Q 203 2459 634 2926 
Q 1066 3394 1725 3394 
Q 2466 3394 2894 2905 
Q 3322 2416 3303 1406 
L 1103 1406 
Q 1113 1016 1316 798 
Q 1519 581 1822 581 
Q 2028 581 2168 693 
Q 2309 806 2381 1056 
z
M 2431 1944 
Q 2422 2325 2234 2523 
Q 2047 2722 1778 2722 
Q 1491 2722 1303 2513 
Q 1116 2303 1119 1944 
L 2431 1944 
z
" transform="scale(0.015625)"/>
      <path id="Arial-BoldMT-6d" d="M 394 3319 
L 1203 3319 
L 1203 2866 
Q 1638 3394 2238 3394 
Q 2556 3394 2790 3262 
Q 3025 3131 3175 2866 
Q 3394 3131 3647 3262 
Q 3900 3394 4188 3394 
Q 4553 3394 4806 3245 
Q 5059 3097 5184 2809 
Q 5275 2597 5275 2122 
L 5275 0 
L 4397 0 
L 4397 1897 
Q 4397 2391 4306 2534 
Q 4184 2722 3931 2722 
Q 3747 2722 3584 2609 
Q 3422 2497 3350 2280 
Q 3278 2063 3278 1594 
L 3278 0 
L 2400 0 
L 2400 1819 
Q 2400 2303 2353 2443 
Q 2306 2584 2207 2653 
Q 2109 2722 1941 2722 
Q 1738 2722 1575 2612 
Q 1413 2503 1342 2297 
Q 1272 2091 1272 1613 
L 1272 0 
L 394 0 
L 394 3319 
z
" transform="scale(0.015625)"/>
      <path id="Arial-BoldMT-69" d="M 459 3769 
L 459 4581 
L 1338 4581 
L 1338 3769 
L 459 3769 
z
M 459 0 
L 459 3319 
L 1338 3319 
L 1338 0 
L 459 0 
z
" transform="scale(0.015625)"/>
      <path id="Arial-BoldMT-63" d="M 3353 2338 
L 2488 2181 
Q 2444 2441 2289 2572 
Q 2134 2703 1888 2703 
Q 1559 2703 1364 2476 
Q 1169 2250 1169 1719 
Q 1169 1128 1367 884 
Q 1566 641 1900 641 
Q 2150 641 2309 783 
Q 2469 925 2534 1272 
L 3397 1125 
Q 3263 531 2881 228 
Q 2500 -75 1859 -75 
Q 1131 -75 698 384 
Q 266 844 266 1656 
Q 266 2478 700 2936 
Q 1134 3394 1875 3394 
Q 2481 3394 2839 3133 
Q 3197 2872 3353 2338 
z
" transform="scale(0.015625)"/>
      <path id="Arial-BoldMT-73" d="M 150 947 
L 1031 1081 
Q 1088 825 1259 692 
Q 1431 559 1741 559 
Q 2081 559 2253 684 
Q 2369 772 2369 919 
Q 2369 1019 2306 1084 
Q 2241 1147 2013 1200 
Q 950 1434 666 1628 
Q 272 1897 272 2375 
Q 272 2806 612 3100 
Q 953 3394 1669 3394 
Q 2350 3394 2681 3172 
Q 3013 2950 3138 2516 
L 2309 2363 
Q 2256 2556 2107 2659 
Q 1959 2763 1684 2763 
Q 1338 2763 1188 2666 
Q 1088 2597 1088 2488 
Q 1088 2394 1175 2328 
Q 1294 2241 1995 2081 
Q 2697 1922 2975 1691 
Q 3250 1456 3250 1038 
Q 3250 581 2869 253 
Q 2488 -75 1741 -75 
Q 1063 -75 667 200 
Q 272 475 150 947 
z
" transform="scale(0.015625)"/>
     </defs>
     <use xlink:href="#Arial-BoldMT-50"/>
     <use xlink:href="#Arial-BoldMT-72" transform="translate(66.699219 0)"/>
     <use xlink:href="#Arial-BoldMT-6f" transform="translate(105.615234 0)"/>
     <use xlink:href="#Arial-BoldMT-74" transform="translate(166.699219 0)"/>
     <use xlink:href="#Arial-BoldMT-65" transform="translate(200 0)"/>
     <use xlink:href="#Arial-BoldMT-6f" transform="translate(255.615234 0)"/>
     <use xlink:href="#Arial-BoldMT-6d" transform="translate(316.699219 0)"/>
     <use xlink:href="#Arial-BoldMT-69" transform="translate(405.615234 0)"/>
     <use xlink:href="#Arial-BoldMT-63" transform="translate(433.398438 0)"/>
     <use xlink:href="#Arial-BoldMT-73" transform="translate(489.013672 0)"/>
    </g>
   </g>
   <g id="text_2">
    <!-- Peptidomics -->
    <g style="fill: #ffffff" transform="translate(94.177034 362.72175) scale(0.08 -0.08)">
     <defs>
      <path id="Arial-BoldMT-70" d="M 434 3319 
L 1253 3319 
L 1253 2831 
Q 1413 3081 1684 3237 
Q 1956 3394 2288 3394 
Q 2866 3394 3269 2941 
Q 3672 2488 3672 1678 
Q 3672 847 3265 386 
Q 2859 -75 2281 -75 
Q 2006 -75 1782 34 
Q 1559 144 1313 409 
L 1313 -1263 
L 434 -1263 
L 434 3319 
z
M 1303 1716 
Q 1303 1156 1525 889 
Q 1747 622 2066 622 
Q 2372 622 2575 867 
Q 2778 1113 2778 1672 
Q 2778 2194 2568 2447 
Q 2359 2700 2050 2700 
Q 1728 2700 1515 2451 
Q 1303 2203 1303 1716 
z
" transform="scale(0.015625)"/>
      <path id="Arial-BoldMT-64" d="M 3503 0 
L 2688 0 
L 2688 488 
Q 2484 203 2207 64 
Q 1931 -75 1650 -75 
Q 1078 -75 670 386 
Q 263 847 263 1672 
Q 263 2516 659 2955 
Q 1056 3394 1663 3394 
Q 2219 3394 2625 2931 
L 2625 4581 
L 3503 4581 
L 3503 0 
z
M 1159 1731 
Q 1159 1200 1306 963 
Q 1519 619 1900 619 
Q 2203 619 2415 876 
Q 2628 1134 2628 1647 
Q 2628 2219 2422 2470 
Q 2216 2722 1894 2722 
Q 1581 2722 1370 2473 
Q 1159 2225 1159 1731 
z
" transform="scale(0.015625)"/>
     </defs>
     <use xlink:href="#Arial-BoldMT-50"/>
     <use xlink:href="#Arial-BoldMT-65" transform="translate(66.699219 0)"/>
     <use xlink:href="#Arial-BoldMT-70" transform="translate(122.314453 0)"/>
     <use xlink:href="#Arial-BoldMT-74" transform="translate(183.398438 0)"/>
     <use xlink:href="#Arial-BoldMT-69" transform="translate(216.699219 0)"/>
     <use xlink:href="#Arial-BoldMT-64" transform="translate(244.482422 0)"/>
     <use xlink:href="#Arial-BoldMT-6f" transform="translate(305.566406 0)"/>
     <use xlink:href="#Arial-BoldMT-6d" transform="translate(366.650391 0)"/>
     <use xlink:href="#Arial-BoldMT-69" transform="translate(455.566406 0)"/>
     <use xlink:href="#Arial-BoldMT-63" transform="translate(483.349609 0)"/>
     <use xlink:href="#Arial-BoldMT-73" transform="translate(538.964844 0)"/>
    </g>
   </g>
   <g id="text_3">
    <!-- Metabolomics -->
    <g style="fill: #ffffff" transform="translate(91.288909 235.61775) scale(0.08 -0.08)">
     <defs>
      <path id="Arial-BoldMT-4d" d="M 453 0 
L 453 4581 
L 1838 4581 
L 2669 1456 
L 3491 4581 
L 4878 4581 
L 4878 0 
L 4019 0 
L 4019 3606 
L 3109 0 
L 2219 0 
L 1313 3606 
L 1313 0 
L 453 0 
z
" transform="scale(0.015625)"/>
      <path id="Arial-BoldMT-61" d="M 1116 2306 
L 319 2450 
Q 453 2931 781 3162 
Q 1109 3394 1756 3394 
Q 2344 3394 2631 3255 
Q 2919 3116 3036 2902 
Q 3153 2688 3153 2116 
L 3144 1091 
Q 3144 653 3186 445 
Q 3228 238 3344 0 
L 2475 0 
Q 2441 88 2391 259 
Q 2369 338 2359 363 
Q 2134 144 1878 34 
Q 1622 -75 1331 -75 
Q 819 -75 523 203 
Q 228 481 228 906 
Q 228 1188 362 1408 
Q 497 1628 739 1745 
Q 981 1863 1438 1950 
Q 2053 2066 2291 2166 
L 2291 2253 
Q 2291 2506 2166 2614 
Q 2041 2722 1694 2722 
Q 1459 2722 1328 2630 
Q 1197 2538 1116 2306 
z
M 2291 1594 
Q 2122 1538 1756 1459 
Q 1391 1381 1278 1306 
Q 1106 1184 1106 997 
Q 1106 813 1243 678 
Q 1381 544 1594 544 
Q 1831 544 2047 700 
Q 2206 819 2256 991 
Q 2291 1103 2291 1419 
L 2291 1594 
z
" transform="scale(0.015625)"/>
      <path id="Arial-BoldMT-62" d="M 422 0 
L 422 4581 
L 1300 4581 
L 1300 2931 
Q 1706 3394 2263 3394 
Q 2869 3394 3266 2955 
Q 3663 2516 3663 1694 
Q 3663 844 3258 384 
Q 2853 -75 2275 -75 
Q 1991 -75 1714 67 
Q 1438 209 1238 488 
L 1238 0 
L 422 0 
z
M 1294 1731 
Q 1294 1216 1456 969 
Q 1684 619 2063 619 
Q 2353 619 2558 867 
Q 2763 1116 2763 1650 
Q 2763 2219 2556 2470 
Q 2350 2722 2028 2722 
Q 1713 2722 1503 2476 
Q 1294 2231 1294 1731 
z
" transform="scale(0.015625)"/>
      <path id="Arial-BoldMT-6c" d="M 459 0 
L 459 4581 
L 1338 4581 
L 1338 0 
L 459 0 
z
" transform="scale(0.015625)"/>
     </defs>
     <use xlink:href="#Arial-BoldMT-4d"/>
     <use xlink:href="#Arial-BoldMT-65" transform="translate(83.300781 0)"/>
     <use xlink:href="#Arial-BoldMT-74" transform="translate(138.916016 0)"/>
     <use xlink:href="#Arial-BoldMT-61" transform="translate(172.216797 0)"/>
     <use xlink:href="#Arial-BoldMT-62" transform="translate(227.832031 0)"/>
     <use xlink:href="#Arial-BoldMT-6f" transform="translate(288.916016 0)"/>
     <use xlink:href="#Arial-BoldMT-6c" transform="translate(350 0)"/>
     <use xlink:href="#Arial-BoldMT-6f" transform="translate(377.783203 0)"/>
     <use xlink:href="#Arial-BoldMT-6d" transform="translate(438.867188 0)"/>
     <use xlink:href="#Arial-BoldMT-69" transform="translate(527.783203 0)"/>
     <use xlink:href="#Arial-BoldMT-63" transform="translate(555.566406 0)"/>
     <use xlink:href="#Arial-BoldMT-73" transform="translate(611.181641 0)"/>
    </g>
   </g>
   <g id="text_4">
    <!-- Lipidomics -->
    <g style="fill: #ffffff" transform="translate(96.847034 108.51375) scale(0.08 -0.08)">
     <defs>
      <path id="Arial-BoldMT-4c" d="M 491 0 
L 491 4544 
L 1416 4544 
L 1416 772 
L 3716 772 
L 3716 0 
L 491 0 
z
" transform="scale(0.015625)"/>
     </defs>
     <use xlink:href="#Arial-BoldMT-4c"/>
     <use xlink:href="#Arial-BoldMT-69" transform="translate(61.083984 0)"/>
     <use xlink:href="#Arial-BoldMT-70" transform="translate(88.867188 0)"/>
     <use xlink:href="#Arial-BoldMT-69" transform="translate(149.951172 0)"/>
     <use xlink:href="#Arial-BoldMT-64" transform="translate(177.734375 0)"/>
     <use xlink:href="#Arial-BoldMT-6f" transform="translate(238.818359 0)"/>
     <use xlink:href="#Arial-BoldMT-6d" transform="translate(299.902344 0)"/>
     <use xlink:href="#Arial-BoldMT-69" transform="translate(388.818359 0)"/>
     <use xlink:href="#Arial-BoldMT-63" transform="translate(416.601562 0)"/>
     <use xlink:href="#Arial-BoldMT-73" transform="translate(472.216797 0)"/>
    </g>
   </g>
   <g id="text_5">
    <!-- Black -->
    <g style="fill: #262626" transform="translate(727.342107 489.566531) scale(0.07 -0.07)">
     <defs>
      <path id="Arial-BoldMT-42" d="M 469 4581 
L 2300 4581 
Q 2844 4581 3111 4536 
Q 3378 4491 3589 4347 
Q 3800 4203 3940 3964 
Q 4081 3725 4081 3428 
Q 4081 3106 3907 2837 
Q 3734 2569 3438 2434 
Q 3856 2313 4081 2019 
Q 4306 1725 4306 1328 
Q 4306 1016 4161 720 
Q 4016 425 3764 248 
Q 3513 72 3144 31 
Q 2913 6 2028 0 
L 469 0 
L 469 4581 
z
M 1394 3819 
L 1394 2759 
L 2000 2759 
Q 2541 2759 2672 2775 
Q 2909 2803 3045 2939 
Q 3181 3075 3181 3297 
Q 3181 3509 3064 3642 
Q 2947 3775 2716 3803 
Q 2578 3819 1925 3819 
L 1394 3819 
z
M 1394 1997 
L 1394 772 
L 2250 772 
Q 2750 772 2884 800 
Q 3091 838 3220 983 
Q 3350 1128 3350 1372 
Q 3350 1578 3250 1722 
Q 3150 1866 2961 1931 
Q 2772 1997 2141 1997 
L 1394 1997 
z
" transform="scale(0.015625)"/>
      <path id="Arial-BoldMT-6b" d="M 428 0 
L 428 4581 
L 1306 4581 
L 1306 2150 
L 2334 3319 
L 3416 3319 
L 2281 2106 
L 3497 0 
L 2550 0 
L 1716 1491 
L 1306 1063 
L 1306 0 
L 428 0 
z
" transform="scale(0.015625)"/>
     </defs>
     <use xlink:href="#Arial-BoldMT-42"/>
     <use xlink:href="#Arial-BoldMT-6c" transform="translate(72.216797 0)"/>
     <use xlink:href="#Arial-BoldMT-61" transform="translate(100 0)"/>
     <use xlink:href="#Arial-BoldMT-63" transform="translate(155.615234 0)"/>
     <use xlink:href="#Arial-BoldMT-6b" transform="translate(211.230469 0)"/>
    </g>
   </g>
   <g id="text_6">
    <!-- Blue -->
    <g style="fill: #262626" transform="translate(729.097028 447.198531) scale(0.07 -0.07)">
     <defs>
      <path id="Arial-BoldMT-75" d="M 2644 0 
L 2644 497 
Q 2463 231 2167 78 
Q 1872 -75 1544 -75 
Q 1209 -75 943 72 
Q 678 219 559 484 
Q 441 750 441 1219 
L 441 3319 
L 1319 3319 
L 1319 1794 
Q 1319 1094 1367 936 
Q 1416 778 1544 686 
Q 1672 594 1869 594 
Q 2094 594 2272 717 
Q 2450 841 2515 1023 
Q 2581 1206 2581 1919 
L 2581 3319 
L 3459 3319 
L 3459 0 
L 2644 0 
z
" transform="scale(0.015625)"/>
     </defs>
     <use xlink:href="#Arial-BoldMT-42"/>
     <use xlink:href="#Arial-BoldMT-6c" transform="translate(72.216797 0)"/>
     <use xlink:href="#Arial-BoldMT-75" transform="translate(100 0)"/>
     <use xlink:href="#Arial-BoldMT-65" transform="translate(161.083984 0)"/>
    </g>
   </g>
   <g id="text_7">
    <!-- Brown -->
    <g style="fill: #262626" transform="translate(725.793357 404.830531) scale(0.07 -0.07)">
     <defs>
      <path id="Arial-BoldMT-77" d="M 1078 0 
L 28 3319 
L 881 3319 
L 1503 1144 
L 2075 3319 
L 2922 3319 
L 3475 1144 
L 4109 3319 
L 4975 3319 
L 3909 0 
L 3066 0 
L 2494 2134 
L 1931 0 
L 1078 0 
z
" transform="scale(0.015625)"/>
      <path id="Arial-BoldMT-6e" d="M 3478 0 
L 2600 0 
L 2600 1694 
Q 2600 2231 2544 2389 
Q 2488 2547 2361 2634 
Q 2234 2722 2056 2722 
Q 1828 2722 1647 2597 
Q 1466 2472 1398 2265 
Q 1331 2059 1331 1503 
L 1331 0 
L 453 0 
L 453 3319 
L 1269 3319 
L 1269 2831 
Q 1703 3394 2363 3394 
Q 2653 3394 2893 3289 
Q 3134 3184 3257 3021 
Q 3381 2859 3429 2653 
Q 3478 2447 3478 2063 
L 3478 0 
z
" transform="scale(0.015625)"/>
     </defs>
     <use xlink:href="#Arial-BoldMT-42"/>
     <use xlink:href="#Arial-BoldMT-72" transform="translate(72.216797 0)"/>
     <use xlink:href="#Arial-BoldMT-6f" transform="translate(111.132812 0)"/>
     <use xlink:href="#Arial-BoldMT-77" transform="translate(172.216797 0)"/>
     <use xlink:href="#Arial-BoldMT-6e" transform="translate(250 0)"/>
    </g>
   </g>
   <g id="text_8">
    <!-- Cyan -->
    <g style="fill: #262626" transform="translate(728.123044 362.45925) scale(0.07 -0.07)">
     <defs>
      <path id="Arial-BoldMT-43" d="M 3397 1684 
L 4294 1400 
Q 4088 650 3608 286 
Q 3128 -78 2391 -78 
Q 1478 -78 890 545 
Q 303 1169 303 2250 
Q 303 3394 893 4026 
Q 1484 4659 2447 4659 
Q 3288 4659 3813 4163 
Q 4125 3869 4281 3319 
L 3366 3100 
Q 3284 3456 3026 3662 
Q 2769 3869 2400 3869 
Q 1891 3869 1573 3503 
Q 1256 3138 1256 2319 
Q 1256 1450 1568 1081 
Q 1881 713 2381 713 
Q 2750 713 3015 947 
Q 3281 1181 3397 1684 
z
" transform="scale(0.015625)"/>
      <path id="Arial-BoldMT-79" d="M 44 3319 
L 978 3319 
L 1772 963 
L 2547 3319 
L 3456 3319 
L 2284 125 
L 2075 -453 
Q 1959 -744 1854 -897 
Q 1750 -1050 1614 -1145 
Q 1478 -1241 1279 -1294 
Q 1081 -1347 831 -1347 
Q 578 -1347 334 -1294 
L 256 -606 
Q 463 -647 628 -647 
Q 934 -647 1081 -467 
Q 1228 -288 1306 -9 
L 44 3319 
z
" transform="scale(0.015625)"/>
     </defs>
     <use xlink:href="#Arial-BoldMT-43"/>
     <use xlink:href="#Arial-BoldMT-79" transform="translate(72.216797 0)"/>
     <use xlink:href="#Arial-BoldMT-61" transform="translate(127.832031 0)"/>
     <use xlink:href="#Arial-BoldMT-6e" transform="translate(183.447266 0)"/>
    </g>
   </g>
   <g id="text_9">
    <!-- Green -->
    <g style="fill: #262626" transform="translate(726.566091 320.094531) scale(0.07 -0.07)">
     <defs>
      <path id="Arial-BoldMT-47" d="M 2597 1684 
L 2597 2456 
L 4591 2456 
L 4591 631 
Q 4300 350 3748 136 
Q 3197 -78 2631 -78 
Q 1913 -78 1378 223 
Q 844 525 575 1086 
Q 306 1647 306 2306 
Q 306 3022 606 3578 
Q 906 4134 1484 4431 
Q 1925 4659 2581 4659 
Q 3434 4659 3914 4301 
Q 4394 3944 4531 3313 
L 3613 3141 
Q 3516 3478 3248 3673 
Q 2981 3869 2581 3869 
Q 1975 3869 1617 3484 
Q 1259 3100 1259 2344 
Q 1259 1528 1621 1120 
Q 1984 713 2572 713 
Q 2863 713 3155 827 
Q 3447 941 3656 1103 
L 3656 1684 
L 2597 1684 
z
" transform="scale(0.015625)"/>
     </defs>
     <use xlink:href="#Arial-BoldMT-47"/>
     <use xlink:href="#Arial-BoldMT-72" transform="translate(77.783203 0)"/>
     <use xlink:href="#Arial-BoldMT-65" transform="translate(116.699219 0)"/>
     <use xlink:href="#Arial-BoldMT-65" transform="translate(172.314453 0)"/>
     <use xlink:href="#Arial-BoldMT-6e" transform="translate(227.929688 0)"/>
    </g>
   </g>
   <g id="text_10">
    <!-- Greenyellow -->
    <g style="fill: #262626" transform="translate(715.868669 277.72325) scale(0.07 -0.07)">
     <use xlink:href="#Arial-BoldMT-47"/>
     <use xlink:href="#Arial-BoldMT-72" transform="translate(77.783203 0)"/>
     <use xlink:href="#Arial-BoldMT-65" transform="translate(116.699219 0)"/>
     <use xlink:href="#Arial-BoldMT-65" transform="translate(172.314453 0)"/>
     <use xlink:href="#Arial-BoldMT-6e" transform="translate(227.929688 0)"/>
     <use xlink:href="#Arial-BoldMT-79" transform="translate(289.013672 0)"/>
     <use xlink:href="#Arial-BoldMT-65" transform="translate(344.628906 0)"/>
     <use xlink:href="#Arial-BoldMT-6c" transform="translate(400.244141 0)"/>
     <use xlink:href="#Arial-BoldMT-6c" transform="translate(428.027344 0)"/>
     <use xlink:href="#Arial-BoldMT-6f" transform="translate(455.810547 0)"/>
     <use xlink:href="#Arial-BoldMT-77" transform="translate(516.894531 0)"/>
    </g>
   </g>
   <g id="text_11">
    <!-- Lightcyan -->
    <g style="fill: #262626" transform="translate(720.153435 235.312594) scale(0.07 -0.07)">
     <defs>
      <path id="Arial-BoldMT-67" d="M 378 -219 
L 1381 -341 
Q 1406 -516 1497 -581 
Q 1622 -675 1891 -675 
Q 2234 -675 2406 -572 
Q 2522 -503 2581 -350 
Q 2622 -241 2622 53 
L 2622 538 
Q 2228 0 1628 0 
Q 959 0 569 566 
Q 263 1013 263 1678 
Q 263 2513 664 2953 
Q 1066 3394 1663 3394 
Q 2278 3394 2678 2853 
L 2678 3319 
L 3500 3319 
L 3500 341 
Q 3500 -247 3403 -537 
Q 3306 -828 3131 -993 
Q 2956 -1159 2664 -1253 
Q 2372 -1347 1925 -1347 
Q 1081 -1347 728 -1058 
Q 375 -769 375 -325 
Q 375 -281 378 -219 
z
M 1163 1728 
Q 1163 1200 1367 954 
Q 1572 709 1872 709 
Q 2194 709 2416 961 
Q 2638 1213 2638 1706 
Q 2638 2222 2425 2472 
Q 2213 2722 1888 2722 
Q 1572 2722 1367 2476 
Q 1163 2231 1163 1728 
z
" transform="scale(0.015625)"/>
      <path id="Arial-BoldMT-68" d="M 1334 4581 
L 1334 2897 
Q 1759 3394 2350 3394 
Q 2653 3394 2897 3281 
Q 3141 3169 3264 2994 
Q 3388 2819 3433 2606 
Q 3478 2394 3478 1947 
L 3478 0 
L 2600 0 
L 2600 1753 
Q 2600 2275 2550 2415 
Q 2500 2556 2373 2639 
Q 2247 2722 2056 2722 
Q 1838 2722 1666 2615 
Q 1494 2509 1414 2295 
Q 1334 2081 1334 1663 
L 1334 0 
L 456 0 
L 456 4581 
L 1334 4581 
z
" transform="scale(0.015625)"/>
     </defs>
     <use xlink:href="#Arial-BoldMT-4c"/>
     <use xlink:href="#Arial-BoldMT-69" transform="translate(61.083984 0)"/>
     <use xlink:href="#Arial-BoldMT-67" transform="translate(88.867188 0)"/>
     <use xlink:href="#Arial-BoldMT-68" transform="translate(149.951172 0)"/>
     <use xlink:href="#Arial-BoldMT-74" transform="translate(211.035156 0)"/>
     <use xlink:href="#Arial-BoldMT-63" transform="translate(244.335938 0)"/>
     <use xlink:href="#Arial-BoldMT-79" transform="translate(299.951172 0)"/>
     <use xlink:href="#Arial-BoldMT-61" transform="translate(355.566406 0)"/>
     <use xlink:href="#Arial-BoldMT-6e" transform="translate(411.181641 0)"/>
    </g>
   </g>
   <g id="text_12">
    <!-- Magenta -->
    <g style="fill: #262626" transform="translate(722.485857 192.944594) scale(0.07 -0.07)">
     <use xlink:href="#Arial-BoldMT-4d"/>
     <use xlink:href="#Arial-BoldMT-61" transform="translate(83.300781 0)"/>
     <use xlink:href="#Arial-BoldMT-67" transform="translate(138.916016 0)"/>
     <use xlink:href="#Arial-BoldMT-65" transform="translate(200 0)"/>
     <use xlink:href="#Arial-BoldMT-6e" transform="translate(255.615234 0)"/>
     <use xlink:href="#Arial-BoldMT-74" transform="translate(316.699219 0)"/>
     <use xlink:href="#Arial-BoldMT-61" transform="translate(350 0)"/>
    </g>
   </g>
   <g id="text_13">
    <!-- Midnightblue -->
    <g style="fill: #262626" transform="translate(714.910544 150.576594) scale(0.07 -0.07)">
     <use xlink:href="#Arial-BoldMT-4d"/>
     <use xlink:href="#Arial-BoldMT-69" transform="translate(83.300781 0)"/>
     <use xlink:href="#Arial-BoldMT-64" transform="translate(111.083984 0)"/>
     <use xlink:href="#Arial-BoldMT-6e" transform="translate(172.167969 0)"/>
     <use xlink:href="#Arial-BoldMT-69" transform="translate(233.251953 0)"/>
     <use xlink:href="#Arial-BoldMT-67" transform="translate(261.035156 0)"/>
     <use xlink:href="#Arial-BoldMT-68" transform="translate(322.119141 0)"/>
     <use xlink:href="#Arial-BoldMT-74" transform="translate(383.203125 0)"/>
     <use xlink:href="#Arial-BoldMT-62" transform="translate(416.503906 0)"/>
     <use xlink:href="#Arial-BoldMT-6c" transform="translate(477.587891 0)"/>
     <use xlink:href="#Arial-BoldMT-75" transform="translate(505.371094 0)"/>
     <use xlink:href="#Arial-BoldMT-65" transform="translate(566.455078 0)"/>
    </g>
   </g>
   <g id="text_14">
    <!-- Pink -->
    <g style="fill: #262626" transform="translate(729.290075 108.254531) scale(0.07 -0.07)">
     <use xlink:href="#Arial-BoldMT-50"/>
     <use xlink:href="#Arial-BoldMT-69" transform="translate(66.699219 0)"/>
     <use xlink:href="#Arial-BoldMT-6e" transform="translate(94.482422 0)"/>
     <use xlink:href="#Arial-BoldMT-6b" transform="translate(155.566406 0)"/>
    </g>
   </g>
   <g id="patch_16">
    <path d="M 176.84422 107.64731 
Q 427.318693 297.095011 677.793166 486.542713 
" style="fill: none; opacity: 0.25; stroke: #9c27b0; stroke-width: 2; stroke-linecap: round"/>
   </g>
   <g id="patch_17">
    <path d="M 176.905761 107.554539 
Q 427.318892 275.911255 677.732023 444.267971 
" style="fill: none; opacity: 0.635; stroke: #9c27b0; stroke-width: 2.77; stroke-linecap: round"/>
   </g>
   <g id="patch_18">
    <path d="M 176.974995 107.45595 
Q 427.322958 254.72974 677.670921 402.00353 
" style="fill: none; opacity: 0.605; stroke: #9c27b0; stroke-width: 2.71; stroke-linecap: round"/>
   </g>
   <g id="patch_19">
    <path d="M 177.036536 107.341846 
Q 427.323173 233.5456 677.609809 359.749354 
" style="fill: none; opacity: 0.14; stroke: #9c27b0; stroke-width: 1.78; stroke-linecap: round"/>
   </g>
   <g id="patch_20">
    <path d="M 177.090384 107.214165 
Q 427.319534 212.359804 677.548684 317.505444 
" style="fill: none; opacity: 0.37; stroke: #9c27b0; stroke-width: 2.24; stroke-linecap: round"/>
   </g>
   <g id="patch_21">
    <path d="M 177.144233 107.077434 
Q 427.319734 191.175911 677.495236 275.274388 
" style="fill: none; opacity: 0.19; stroke: #9c27b0; stroke-width: 1.88; stroke-linecap: round"/>
   </g>
   <g id="patch_22">
    <path d="M 177.190388 106.929712 
Q 427.31991 169.991977 677.449432 233.054243 
" style="fill: none; opacity: 0.105; stroke: #9c27b0; stroke-width: 1.71; stroke-linecap: round"/>
   </g>
   <g id="patch_23">
    <path d="M 177.221159 106.771646 
Q 427.32003 148.808005 677.418901 190.844364 
" style="fill: none; opacity: 0.225; stroke: #9c27b0; stroke-width: 1.95; stroke-linecap: round"/>
   </g>
   <g id="patch_24">
    <path d="M 177.244237 106.607763 
Q 427.320121 127.62401 677.396006 148.640258 
" style="fill: none; opacity: 0.14; stroke: #9c27b0; stroke-width: 1.78; stroke-linecap: round"/>
   </g>
   <g id="patch_25">
    <path d="M 177.244237 106.44 
Q 427.31629 106.44 677.388343 106.44 
" style="fill: none; opacity: 0.235; stroke: #9c27b0; stroke-width: 1.97; stroke-linecap: round"/>
   </g>
   <g id="patch_26">
    <path d="M 177.036536 234.445846 
Q 427.323173 360.6496 677.609809 486.853354 
" style="fill: none; opacity: 0.195; stroke: #ff9800; stroke-width: 1.89; stroke-linecap: round"/>
   </g>
   <g id="patch_27">
    <path d="M 177.090384 234.318165 
Q 427.319534 339.463804 677.548684 444.609444 
" style="fill: none; opacity: 0.8; stroke: #ff9800; stroke-width: 3.22; stroke-linecap: round"/>
   </g>
   <g id="patch_28">
    <path d="M 177.144233 234.181434 
Q 427.319734 318.279911 677.495236 402.378388 
" style="fill: none; opacity: 0.765; stroke: #ff9800; stroke-width: 3.03; stroke-linecap: round"/>
   </g>
   <g id="patch_29">
    <path d="M 177.221159 233.875646 
Q 427.32003 275.912005 677.418901 317.948364 
" style="fill: none; opacity: 0.46; stroke: #ff9800; stroke-width: 2.42; stroke-linecap: round"/>
   </g>
   <g id="patch_30">
    <path d="M 177.244237 233.711763 
Q 427.320121 254.72801 677.396006 275.744258 
" style="fill: none; opacity: 0.125; stroke: #ff9800; stroke-width: 1.75; stroke-linecap: round"/>
   </g>
   <g id="patch_31">
    <path d="M 177.244237 233.376237 
Q 427.320121 212.35999 677.396006 191.343742 
" style="fill: none; opacity: 0.16; stroke: #ff9800; stroke-width: 1.82; stroke-linecap: round"/>
   </g>
   <g id="patch_32">
    <path d="M 177.190388 233.054288 
Q 427.31991 169.992023 677.449432 106.929757 
" style="fill: none; opacity: 0.18; stroke: #ff9800; stroke-width: 1.86; stroke-linecap: round"/>
   </g>
   <g id="patch_33">
    <path d="M 177.190388 361.137712 
Q 427.31991 424.199977 677.449432 487.262243 
" style="fill: none; opacity: 0.22; stroke: #4caf50; stroke-width: 1.94; stroke-linecap: round"/>
   </g>
   <g id="patch_34">
    <path d="M 177.221159 360.979646 
Q 427.32003 403.016005 677.418901 445.052364 
" style="fill: none; opacity: 0.8; stroke: #4caf50; stroke-width: 3.37; stroke-linecap: round"/>
   </g>
   <g id="patch_35">
    <path d="M 177.244237 360.815763 
Q 427.320121 381.83201 677.396006 402.848258 
" style="fill: none; opacity: 0.51; stroke: #4caf50; stroke-width: 2.52; stroke-linecap: round"/>
   </g>
   <g id="patch_36">
    <path d="M 177.244237 360.480237 
Q 427.320121 339.46399 677.396006 318.447742 
" style="fill: none; opacity: 0.34; stroke: #4caf50; stroke-width: 2.18; stroke-linecap: round"/>
   </g>
   <g id="patch_37">
    <path d="M 177.144233 360.010566 
Q 427.319734 275.912089 677.495236 191.813612 
" style="fill: none; opacity: 0.205; stroke: #4caf50; stroke-width: 1.91; stroke-linecap: round"/>
   </g>
   <g id="patch_38">
    <path d="M 177.036536 359.746154 
Q 427.323173 233.5424 677.609809 107.338646 
" style="fill: none; opacity: 0.215; stroke: #4caf50; stroke-width: 1.93; stroke-linecap: round"/>
   </g>
   <g id="patch_39">
    <path d="M 177.244237 487.584237 
Q 427.320121 466.56799 677.396006 445.551742 
" style="fill: none; opacity: 0.8; stroke: #2196f3; stroke-width: 3.67; stroke-linecap: round"/>
   </g>
   <g id="patch_40">
    <path d="M 177.221159 487.420354 
Q 427.32003 445.383995 677.418901 403.347636 
" style="fill: none; opacity: 0.505; stroke: #2196f3; stroke-width: 2.51; stroke-linecap: round"/>
   </g>
   <g id="patch_41">
    <path d="M 177.144233 487.114566 
Q 427.319734 403.016089 677.495236 318.917612 
" style="fill: none; opacity: 0.185; stroke: #2196f3; stroke-width: 1.87; stroke-linecap: round"/>
   </g>
   <g id="text_15">
    <!-- Figure 5C — Multi-Omics Module Membership -->
    <g style="fill: #262626" transform="translate(296.314687 15.935625) scale(0.12 -0.12)">
     <defs>
      <path id="Arial-BoldMT-46" d="M 472 0 
L 472 4581 
L 3613 4581 
L 3613 3806 
L 1397 3806 
L 1397 2722 
L 3309 2722 
L 3309 1947 
L 1397 1947 
L 1397 0 
L 472 0 
z
" transform="scale(0.015625)"/>
      <path id="Arial-BoldMT-20" transform="scale(0.015625)"/>
      <path id="Arial-BoldMT-35" d="M 284 1178 
L 1159 1269 
Q 1197 972 1381 798 
Q 1566 625 1806 625 
Q 2081 625 2272 848 
Q 2463 1072 2463 1522 
Q 2463 1944 2273 2155 
Q 2084 2366 1781 2366 
Q 1403 2366 1103 2031 
L 391 2134 
L 841 4519 
L 3163 4519 
L 3163 3697 
L 1506 3697 
L 1369 2919 
Q 1663 3066 1969 3066 
Q 2553 3066 2959 2641 
Q 3366 2216 3366 1538 
Q 3366 972 3038 528 
Q 2591 -78 1797 -78 
Q 1163 -78 763 262 
Q 363 603 284 1178 
z
" transform="scale(0.015625)"/>
      <path id="Arial-BoldMT-2014" d="M 0 1331 
L 0 1988 
L 6400 1988 
L 6400 1331 
L 0 1331 
z
" transform="scale(0.015625)"/>
      <path id="Arial-BoldMT-2d" d="M 359 1222 
L 359 2100 
L 2084 2100 
L 2084 1222 
L 359 1222 
z
" transform="scale(0.015625)"/>
      <path id="Arial-BoldMT-4f" d="M 278 2263 
Q 278 2963 488 3438 
Q 644 3788 914 4066 
Q 1184 4344 1506 4478 
Q 1934 4659 2494 4659 
Q 3506 4659 4114 4031 
Q 4722 3403 4722 2284 
Q 4722 1175 4119 548 
Q 3516 -78 2506 -78 
Q 1484 -78 881 545 
Q 278 1169 278 2263 
z
M 1231 2294 
Q 1231 1516 1590 1114 
Q 1950 713 2503 713 
Q 3056 713 3411 1111 
Q 3766 1509 3766 2306 
Q 3766 3094 3420 3481 
Q 3075 3869 2503 3869 
Q 1931 3869 1581 3476 
Q 1231 3084 1231 2294 
z
" transform="scale(0.015625)"/>
     </defs>
     <use xlink:href="#Arial-BoldMT-46"/>
     <use xlink:href="#Arial-BoldMT-69" transform="translate(61.083984 0)"/>
     <use xlink:href="#Arial-BoldMT-67" transform="translate(88.867188 0)"/>
     <use xlink:href="#Arial-BoldMT-75" transform="translate(149.951172 0)"/>
     <use xlink:href="#Arial-BoldMT-72" transform="translate(211.035156 0)"/>
     <use xlink:href="#Arial-BoldMT-65" transform="translate(249.951172 0)"/>
     <use xlink:href="#Arial-BoldMT-20" transform="translate(305.566406 0)"/>
     <use xlink:href="#Arial-BoldMT-35" transform="translate(333.349609 0)"/>
     <use xlink:href="#Arial-BoldMT-43" transform="translate(388.964844 0)"/>
     <use xlink:href="#Arial-BoldMT-20" transform="translate(461.181641 0)"/>
     <use xlink:href="#Arial-BoldMT-2014" transform="translate(488.964844 0)"/>
     <use xlink:href="#Arial-BoldMT-20" transform="translate(588.964844 0)"/>
     <use xlink:href="#Arial-BoldMT-4d" transform="translate(616.748047 0)"/>
     <use xlink:href="#Arial-BoldMT-75" transform="translate(700.048828 0)"/>
     <use xlink:href="#Arial-BoldMT-6c" transform="translate(761.132812 0)"/>
     <use xlink:href="#Arial-BoldMT-74" transform="translate(788.916016 0)"/>
     <use xlink:href="#Arial-BoldMT-69" transform="translate(822.216797 0)"/>
     <use xlink:href="#Arial-BoldMT-2d" transform="translate(850 0)"/>
     <use xlink:href="#Arial-BoldMT-4f" transform="translate(883.300781 0)"/>
     <use xlink:href="#Arial-BoldMT-6d" transform="translate(961.083984 0)"/>
     <use xlink:href="#Arial-BoldMT-69" transform="translate(1050 0)"/>
     <use xlink:href="#Arial-BoldMT-63" transform="translate(1077.783203 0)"/>
     <use xlink:href="#Arial-BoldMT-73" transform="translate(1133.398438 0)"/>
     <use xlink:href="#Arial-BoldMT-20" transform="translate(1189.013672 0)"/>
     <use xlink:href="#Arial-BoldMT-4d" transform="translate(1216.796875 0)"/>
     <use xlink:href="#Arial-BoldMT-6f" transform="translate(1300.097656 0)"/>
     <use xlink:href="#Arial-BoldMT-64" transform="translate(1361.181641 0)"/>
     <use xlink:href="#Arial-BoldMT-75" transform="translate(1422.265625 0)"/>
     <use xlink:href="#Arial-BoldMT-6c" transform="translate(1483.349609 0)"/>
     <use xlink:href="#Arial-BoldMT-65" transform="translate(1511.132812 0)"/>
     <use xlink:href="#Arial-BoldMT-20" transform="translate(1566.748047 0)"/>
     <use xlink:href="#Arial-BoldMT-4d" transform="translate(1594.53125 0)"/>
     <use xlink:href="#Arial-BoldMT-65" transform="translate(1677.832031 0)"/>
     <use xlink:href="#Arial-BoldMT-6d" transform="translate(1733.447266 0)"/>
     <use xlink:href="#Arial-BoldMT-62" transform="translate(1822.363281 0)"/>
     <use xlink:href="#Arial-BoldMT-65" transform="translate(1883.447266 0)"/>
     <use xlink:href="#Arial-BoldMT-72" transform="translate(1939.0625 0)"/>
     <use xlink:href="#Arial-BoldMT-73" transform="translate(1977.978516 0)"/>
     <use xlink:href="#Arial-BoldMT-68" transform="translate(2033.59375 0)"/>
     <use xlink:href="#Arial-BoldMT-69" transform="translate(2094.677734 0)"/>
     <use xlink:href="#Arial-BoldMT-70" transform="translate(2122.460938 0)"/>
    </g>
    <!-- (Omics Layers → Co-regulated WGCNA Modules) -->
    <g style="fill: #262626" transform="translate(286.865625 28.944) scale(0.12 -0.12)">
     <defs>
      <path id="Arial-BoldMT-28" d="M 1916 -1347 
L 1313 -1347 
Q 834 -625 584 153 
Q 334 931 334 1659 
Q 334 2563 644 3369 
Q 913 4069 1325 4659 
L 1925 4659 
Q 1497 3713 1336 3048 
Q 1175 2384 1175 1641 
Q 1175 1128 1270 590 
Q 1366 53 1531 -431 
Q 1641 -750 1916 -1347 
z
" transform="scale(0.015625)"/>
      <path id="Arial-BoldMT-2192" d="M 4859 2738 
Q 5275 2284 5578 2048 
Q 5881 1813 6150 1697 
L 6150 1556 
Q 5841 1406 5550 1173 
Q 5259 941 4856 491 
L 4616 491 
Q 4909 1119 5231 1456 
L 247 1456 
L 247 1772 
L 5231 1772 
Q 4994 2072 4900 2220 
Q 4806 2369 4622 2738 
L 4859 2738 
z
" transform="scale(0.015625)"/>
      <path id="Arial-BoldMT-57" d="M 1116 0 
L 22 4581 
L 969 4581 
L 1659 1434 
L 2497 4581 
L 3597 4581 
L 4400 1381 
L 5103 4581 
L 6034 4581 
L 4922 0 
L 3941 0 
L 3028 3425 
L 2119 0 
L 1116 0 
z
" transform="scale(0.015625)"/>
      <path id="Arial-BoldMT-4e" d="M 475 0 
L 475 4581 
L 1375 4581 
L 3250 1522 
L 3250 4581 
L 4109 4581 
L 4109 0 
L 3181 0 
L 1334 2988 
L 1334 0 
L 475 0 
z
" transform="scale(0.015625)"/>
      <path id="Arial-BoldMT-41" d="M 4597 0 
L 3591 0 
L 3191 1041 
L 1359 1041 
L 981 0 
L 0 0 
L 1784 4581 
L 2763 4581 
L 4597 0 
z
M 2894 1813 
L 2263 3513 
L 1644 1813 
L 2894 1813 
z
" transform="scale(0.015625)"/>
      <path id="Arial-BoldMT-29" d="M 216 -1347 
Q 475 -791 581 -494 
Q 688 -197 778 190 
Q 869 578 912 926 
Q 956 1275 956 1641 
Q 956 2384 797 3048 
Q 638 3713 209 4659 
L 806 4659 
Q 1278 3988 1539 3234 
Q 1800 2481 1800 1706 
Q 1800 1053 1594 306 
Q 1359 -531 822 -1347 
L 216 -1347 
z
" transform="scale(0.015625)"/>
     </defs>
     <use xlink:href="#Arial-BoldMT-28"/>
     <use xlink:href="#Arial-BoldMT-4f" transform="translate(33.300781 0)"/>
     <use xlink:href="#Arial-BoldMT-6d" transform="translate(111.083984 0)"/>
     <use xlink:href="#Arial-BoldMT-69" transform="translate(200 0)"/>
     <use xlink:href="#Arial-BoldMT-63" transform="translate(227.783203 0)"/>
     <use xlink:href="#Arial-BoldMT-73" transform="translate(283.398438 0)"/>
     <use xlink:href="#Arial-BoldMT-20" transform="translate(339.013672 0)"/>
     <use xlink:href="#Arial-BoldMT-4c" transform="translate(366.796875 0)"/>
     <use xlink:href="#Arial-BoldMT-61" transform="translate(427.880859 0)"/>
     <use xlink:href="#Arial-BoldMT-79" transform="translate(483.496094 0)"/>
     <use xlink:href="#Arial-BoldMT-65" transform="translate(539.111328 0)"/>
     <use xlink:href="#Arial-BoldMT-72" transform="translate(594.726562 0)"/>
     <use xlink:href="#Arial-BoldMT-73" transform="translate(633.642578 0)"/>
     <use xlink:href="#Arial-BoldMT-20" transform="translate(689.257812 0)"/>
     <use xlink:href="#Arial-BoldMT-2192" transform="translate(717.041016 0)"/>
     <use xlink:href="#Arial-BoldMT-20" transform="translate(817.041016 0)"/>
     <use xlink:href="#Arial-BoldMT-43" transform="translate(844.824219 0)"/>
     <use xlink:href="#Arial-BoldMT-6f" transform="translate(917.041016 0)"/>
     <use xlink:href="#Arial-BoldMT-2d" transform="translate(978.125 0)"/>
     <use xlink:href="#Arial-BoldMT-72" transform="translate(1011.425781 0)"/>
     <use xlink:href="#Arial-BoldMT-65" transform="translate(1050.341797 0)"/>
     <use xlink:href="#Arial-BoldMT-67" transform="translate(1105.957031 0)"/>
     <use xlink:href="#Arial-BoldMT-75" transform="translate(1167.041016 0)"/>
     <use xlink:href="#Arial-BoldMT-6c" transform="translate(1228.125 0)"/>
     <use xlink:href="#Arial-BoldMT-61" transform="translate(1255.908203 0)"/>
     <use xlink:href="#Arial-BoldMT-74" transform="translate(1311.523438 0)"/>
     <use xlink:href="#Arial-BoldMT-65" transform="translate(1344.824219 0)"/>
     <use xlink:href="#Arial-BoldMT-64" transform="translate(1400.439453 0)"/>
     <use xlink:href="#Arial-BoldMT-20" transform="translate(1461.523438 0)"/>
     <use xlink:href="#Arial-BoldMT-57" transform="translate(1489.306641 0)"/>
     <use xlink:href="#Arial-BoldMT-47" transform="translate(1583.691406 0)"/>
     <use xlink:href="#Arial-BoldMT-43" transform="translate(1661.474609 0)"/>
     <use xlink:href="#Arial-BoldMT-4e" transform="translate(1733.691406 0)"/>
     <use xlink:href="#Arial-BoldMT-41" transform="translate(1805.908203 0)"/>
     <use xlink:href="#Arial-BoldMT-20" transform="translate(1874.375 0)"/>
     <use xlink:href="#Arial-BoldMT-4d" transform="translate(1902.158203 0)"/>
     <use xlink:href="#Arial-BoldMT-6f" transform="translate(1985.458984 0)"/>
     <use xlink:href="#Arial-BoldMT-64" transform="translate(2046.542969 0)"/>
     <use xlink:href="#Arial-BoldMT-75" transform="translate(2107.626953 0)"/>
     <use xlink:href="#Arial-BoldMT-6c" transform="translate(2168.710938 0)"/>
     <use xlink:href="#Arial-BoldMT-65" transform="translate(2196.494141 0)"/>
     <use xlink:href="#Arial-BoldMT-73" transform="translate(2252.109375 0)"/>
     <use xlink:href="#Arial-BoldMT-29" transform="translate(2307.724609 0)"/>
    </g>
   </g>
  </g>
 </g>
 <defs>
  <clipPath id="p1ef31ccf65">
   <rect x="7.2" y="34.944" width="840.24" height="524.304"/>
  </clipPath>
 </defs>
</svg>
